<svg width="154" height="119" viewBox="0 0 154 119" fill="none" xmlns="http://www.w3.org/2000/svg">
<path d="M153.929 42.5535H151.81V45.2977C151.814 47.1357 151.339 48.9425 150.432 50.5367C149.928 51.6096 149.065 52.4681 147.994 52.9602C145.445 53.6108 142.812 53.8632 140.186 53.7086H90.3015C87.2958 54.026 84.2604 53.5341 81.5045 52.283C80.5036 51.4103 79.7269 50.3062 79.2409 49.065C78.7549 47.8237 78.5739 46.4823 78.7135 45.1551V33.1447H102.031C104.57 33.0207 107.114 33.2485 109.591 33.8218C110.194 34.0372 110.749 34.372 111.222 34.8065C111.695 35.2411 112.078 35.7666 112.347 36.3522C113.214 37.9463 113.664 39.7372 113.654 41.5556V44.3354H115.774V11.0126H113.689V13.7568C113.694 15.5948 113.218 17.4016 112.312 18.9958C111.798 20.0617 110.938 20.9173 109.874 21.4193C107.324 22.0682 104.69 22.3088 102.066 22.1321H78.7135V0H75.1806V22.0964H52.1106C49.116 22.4284 46.0882 21.9357 43.3489 20.6709C42.348 19.7982 41.5714 18.6941 41.0854 17.4528C40.5993 16.2116 40.4184 14.8701 40.5579 13.543V10.9057H38.4382V44.2642H40.5579V41.4843C40.5682 39.6323 41.0551 37.8147 41.9711 36.2096C42.4971 35.1704 43.3563 34.3414 44.4088 33.8574C46.947 33.2115 49.5678 32.9591 52.1812 33.109H75.3572V42.7673V45.5472C75.2873 47.4032 74.7394 49.2088 73.7674 50.7862C73.2527 51.8634 72.3766 52.7219 71.2943 53.2096C68.7446 53.8594 66.1133 54.1236 63.4866 53.9937H13.7077C10.7017 54.325 7.66269 53.8326 4.91076 52.5681C3.93333 51.7154 3.17063 50.6407 2.6854 49.4324C2.20018 48.2242 2.00631 46.917 2.11976 45.6185V42.7673H0V76.1258H2.11976V73.3816C2.11191 71.525 2.57399 69.6972 3.46226 68.0713C4.01033 67.0362 4.87878 66.2102 5.93531 65.7191C8.47776 65.1018 11.0996 64.8854 13.7077 65.0776H63.5926C66.1319 64.9351 68.6783 65.1632 71.153 65.7547C72.3723 66.1838 73.375 67.08 73.944 68.2495C74.8171 69.8541 75.2672 71.6581 75.2512 73.4885V85.9979H52.1106C49.116 86.3298 46.0882 85.8372 43.3489 84.5723C42.3651 83.7232 41.5957 82.65 41.1042 81.4416C40.6128 80.2332 40.4134 78.9242 40.5226 77.6227V74.8428H38.4382V108.201H40.5579V105.457C40.5595 103.57 41.0465 101.716 41.9711 100.075C42.5192 99.0404 43.3876 98.2144 44.4441 97.7233C46.9697 97.0738 49.5794 96.8213 52.1812 96.9748H75.3572V119H78.8901V96.9748H102.031C104.556 96.8481 107.087 97.0639 109.556 97.6164C110.164 97.8312 110.723 98.1655 111.202 98.5998C111.681 99.0341 112.07 99.5599 112.347 100.147C113.214 101.741 113.664 103.532 113.654 105.35V108.13H115.774V74.8428H113.689V77.587C113.694 79.425 113.218 81.2318 112.312 82.826C111.798 83.8919 110.938 84.7475 109.874 85.2495C107.324 85.8947 104.691 86.147 102.066 85.9979H78.7841V72.7044C78.868 71.0306 79.327 69.3978 80.1266 67.9287C80.6527 66.8895 81.5118 66.0605 82.5644 65.5765C85.1025 64.9306 87.7233 64.6782 90.3368 64.8281H140.222C142.761 64.6856 145.307 64.9137 147.782 65.5052C148.387 65.7073 148.944 66.0332 149.418 66.4625C149.892 66.8918 150.273 67.4152 150.538 68C151.423 69.6013 151.885 71.4054 151.88 73.239V75.9832H154L153.929 42.5535Z" fill="#E6F0F5" fill-opacity="0.5"/>
</svg>
