<svg width="21" height="20" viewBox="0 0 21 20" fill="none" xmlns="http://www.w3.org/2000/svg">
<path d="M10.0415 9.33722H11.476V10.8604H10.0415V9.33722Z" fill="white"/>
<path d="M12.9106 9.33722H14.3452V10.8604H12.9106V9.33722Z" fill="white"/>
<path d="M15.7798 9.33722H17.2143V10.8604H15.7798V9.33722Z" fill="white"/>
<path d="M10.0415 12.3841H11.476V13.9073H10.0415V12.3841Z" fill="white"/>
<path d="M12.9106 12.3841H14.3452V13.9073H12.9106V12.3841Z" fill="white"/>
<path d="M15.7798 12.3841H17.2143V13.9073H15.7798V12.3841Z" fill="white"/>
<path d="M10.0415 15.4305H11.476V16.9537H10.0415V15.4305Z" fill="white"/>
<path d="M12.9106 15.4305H14.3452V16.9537H12.9106V15.4305Z" fill="white"/>
<path d="M15.7798 15.4305H17.2143V16.9537H15.7798V15.4305Z" fill="white"/>
<path d="M10.0415 6.29089H17.2141V7.81412H10.0415V6.29089Z" fill="white"/>
<path d="M18.6489 3.24455H8.6072V2.48294C8.60682 2.07908 8.45556 1.69188 8.18662 1.4063C7.91767 1.12073 7.55302 0.96012 7.17267 0.959717H4.3036C3.92326 0.96012 3.5586 1.12073 3.28965 1.4063C3.02071 1.69188 2.86945 2.07908 2.86907 2.48294V3.24455H1.43453C1.05419 3.24495 0.68953 3.40557 0.420585 3.69114C0.15164 3.97671 0.000379776 4.36391 0 4.76777V18.4768C0.000379776 18.8806 0.15164 19.2678 0.420585 19.5534C0.68953 19.839 1.05419 19.9996 1.43453 20H18.6489C19.0293 19.9996 19.3939 19.839 19.6629 19.5534C19.9318 19.2678 20.0831 18.8806 20.0835 18.4768V4.76777C20.0831 4.36391 19.9318 3.97671 19.6629 3.69114C19.3939 3.40557 19.0293 3.24495 18.6489 3.24455ZM4.3036 2.48294H7.17267V15.4303H4.3036V2.48294ZM18.6489 18.4768H1.43453V4.76777H2.86907V15.4303C2.86945 15.8342 3.02071 16.2214 3.28965 16.507C3.5586 16.7925 3.92326 16.9532 4.3036 16.9536H7.17267C7.55302 16.9532 7.91767 16.7925 8.18662 16.507C8.45556 16.2214 8.60682 15.8342 8.6072 15.4303V4.76777H18.6489V18.4768Z" fill="white"/>
</svg>
