<svg width="88" height="92" viewBox="0 0 88 92" fill="none" xmlns="http://www.w3.org/2000/svg">
<path d="M80.1497 68.5315C80.1497 66.7352 78.6528 65.2384 76.8566 65.2384H63.8337C63.3847 65.2384 62.7859 65.388 62.3369 65.5377C62.4865 65.0886 62.6362 64.6396 62.6362 64.0408V61.1968C62.6362 59.4005 61.1393 57.9036 59.3431 57.9036H46.3202C45.8711 57.9036 45.5717 58.0533 45.2724 58.0533V52.8142H52.9065C58.2952 52.8142 62.6362 48.4733 62.6362 43.0845C62.6362 42.4857 62.1872 42.0367 61.5884 42.0367H52.9065C49.763 42.0367 47.0686 43.5336 45.2724 45.6292V38.2945C52.6071 37.6957 58.2952 31.5585 58.2952 24.2238C58.2952 16.44 52.0083 10.0034 44.0749 10.0034C36.1414 10.0034 29.8545 16.2903 29.8545 24.2238C29.8545 31.7082 35.6923 37.6957 42.8774 38.2945V52.9639C41.0811 50.7186 38.3867 49.3714 35.2433 49.3714H26.5613C25.9626 49.3714 25.5135 49.8205 25.5135 50.4192C25.5135 55.808 29.8545 60.149 35.2433 60.149H42.8774V65.3881C42.578 65.2384 42.1289 65.2384 41.8295 65.2384H28.8067C27.0104 65.2384 25.5135 66.7352 25.5135 68.5315V71.3756C25.5135 71.8247 25.6632 72.4234 25.8129 72.8725C25.3638 72.7228 24.9148 72.5731 24.316 72.5731H11.2932C9.4969 72.5731 8 74.07 8 75.8662V78.7103C8 80.5066 9.4969 82.0034 11.2932 82.0034H24.316C25.2141 82.0034 25.9626 81.7041 26.5613 81.1053C27.1601 81.5544 27.9085 82.0034 28.8067 82.0034H41.8295C42.7277 82.0034 43.4761 81.7041 44.0749 81.1053C44.6736 81.5544 45.4221 82.0034 46.3202 82.0034H59.3431C60.2412 82.0034 60.9897 81.7041 61.5884 81.1053C62.1872 81.5544 62.9356 82.0034 63.8337 82.0034H76.8566C78.6528 82.0034 80.1497 80.5066 80.1497 78.7103V75.8662C80.1497 74.9681 79.8504 74.2197 79.2516 73.6209C79.7007 73.0222 80.1497 72.2737 80.1497 71.3756V68.5315ZM52.9065 44.1323H60.3909C59.7921 47.8745 56.6487 50.7186 52.9065 50.7186H45.4221C45.8711 46.9764 49.0146 44.1323 52.9065 44.1323ZM35.393 57.9036C31.5011 57.9036 28.3576 55.0595 27.9086 51.3173H35.393C39.2849 51.3173 42.4283 54.1614 42.8774 57.9036H35.393ZM25.6632 78.7103C25.6632 79.3091 25.2142 79.7581 24.6154 79.7581H11.5925C10.9938 79.7581 10.5447 79.3091 10.5447 78.7103V75.8662C10.5447 75.2675 10.9938 74.8184 11.5925 74.8184H24.6154C25.2142 74.8184 25.6632 75.2675 25.6632 75.8662V78.7103ZM43.027 78.7103C43.027 79.3091 42.578 79.7581 41.9792 79.7581H28.9564C28.3576 79.7581 27.9086 79.3091 27.9086 78.7103V75.8662C27.9086 75.2675 28.3576 74.8184 28.9564 74.8184H41.9792C42.578 74.8184 43.027 75.2675 43.027 75.8662V78.7103ZM43.027 71.3756C43.027 71.9743 42.578 72.4234 41.9792 72.4234H28.9564C28.3576 72.4234 27.9086 71.9743 27.9086 71.3756V68.5315C27.9086 67.9327 28.3576 67.4837 28.9564 67.4837H41.9792C42.578 67.4837 43.027 67.9327 43.027 68.5315V71.3756ZM32.2495 24.2238C32.2495 17.6375 37.6383 12.2487 44.2246 12.2487C50.8108 12.2487 56.1996 17.6375 56.1996 24.2238C56.1996 30.8101 50.8108 36.1989 44.2246 36.1989C37.6383 36.1989 32.2495 30.8101 32.2495 24.2238ZM60.5406 78.7103C60.5406 79.3091 60.0915 79.7581 59.4927 79.7581H46.3202C45.7214 79.7581 45.2724 79.3091 45.2724 78.7103V75.8662C45.2724 75.2675 45.7214 74.8184 46.3202 74.8184H59.3431C59.9418 74.8184 60.3909 75.2675 60.3909 75.8662V78.7103H60.5406ZM60.5406 71.3756C60.5406 71.9743 60.0915 72.4234 59.4927 72.4234H46.3202C45.7214 72.4234 45.2724 71.9743 45.2724 71.3756V68.5315C45.2724 67.9327 45.7214 67.4837 46.3202 67.4837H59.3431C59.9418 67.4837 60.3909 67.9327 60.3909 68.5315V71.3756H60.5406ZM60.5406 64.1905C60.5406 64.7893 60.0915 65.2384 59.4927 65.2384H46.3202C45.7214 65.2384 45.2724 64.7893 45.2724 64.1905V61.3465C45.2724 60.7477 45.7214 60.2986 46.3202 60.2986H59.3431C59.9418 60.2986 60.3909 60.7477 60.3909 61.3465V64.1905H60.5406ZM77.9044 78.7103C77.9044 79.3091 77.4553 79.7581 76.8566 79.7581H63.8337C63.235 79.7581 62.7859 79.3091 62.7859 78.7103V75.8662C62.7859 75.2675 63.235 74.8184 63.8337 74.8184H76.8566C77.4553 74.8184 77.9044 75.2675 77.9044 75.8662V78.7103ZM77.9044 71.3756C77.9044 71.9743 77.4553 72.4234 76.8566 72.4234H63.8337C63.235 72.4234 62.7859 71.9743 62.7859 71.3756V68.5315C62.7859 67.9327 63.235 67.4837 63.8337 67.4837H76.8566C77.4553 67.4837 77.9044 67.9327 77.9044 68.5315V71.3756Z" fill="#195A96"/>
<path d="M44.0748 23.1757C42.4283 23.1757 41.6798 22.5769 41.6798 21.0801C41.6798 19.8826 42.7276 18.9844 44.0748 18.9844C45.1227 18.9844 46.0208 19.5832 46.3202 20.3316C46.6195 20.9304 47.2183 21.08 47.817 20.9304C48.4158 20.631 48.5655 20.0322 48.4158 19.4335C47.817 18.0863 46.6195 17.1881 45.2723 16.8888V16.1403C45.2723 15.5416 44.8233 15.0925 44.2245 15.0925C43.6258 15.0925 43.1767 15.5416 43.1767 16.1403V16.8888C41.2308 17.3378 39.7339 18.9844 39.7339 20.9304C39.7339 23.026 40.9314 25.1216 44.2245 25.1216C45.7214 25.1216 46.6196 25.8701 46.6196 27.2173C46.6196 28.4148 45.5717 29.3129 44.2245 29.3129C43.1767 29.3129 42.2786 28.7142 41.9792 27.9657C41.6798 27.367 41.0811 27.2172 40.4823 27.3669C39.8836 27.6663 39.7339 28.2651 39.8836 28.8638C40.4823 30.211 41.5301 31.1092 43.027 31.4085V32.157C43.027 32.7557 43.4761 33.2048 44.0748 33.2048C44.6736 33.2048 45.1227 32.7557 45.1227 32.157V31.4085C47.0686 30.9595 48.5655 29.3129 48.5655 27.3669C48.7152 24.8222 46.9189 23.1757 44.0748 23.1757Z" fill="#195A96"/>
<path d="M36.1416 25.2717C36.7203 25.2717 37.1894 24.8026 37.1894 24.2239C37.1894 23.6452 36.7203 23.176 36.1416 23.176C35.5629 23.176 35.0938 23.6452 35.0938 24.2239C35.0938 24.8026 35.5629 25.2717 36.1416 25.2717Z" fill="#195A96"/>
<path d="M52.1577 25.2717C52.7363 25.2717 53.2055 24.8026 53.2055 24.2239C53.2055 23.6452 52.7363 23.176 52.1577 23.176C51.579 23.176 51.1099 23.6452 51.1099 24.2239C51.1099 24.8026 51.579 25.2717 52.1577 25.2717Z" fill="#195A96"/>
</svg>
