<svg width="295" height="135" viewBox="0 0 295 135" fill="none" xmlns="http://www.w3.org/2000/svg">
<path d="M200.852 29.0559H199.391V30.9296C199.394 32.1846 199.066 33.4183 198.441 34.5069C198.094 35.2395 197.499 35.8257 196.761 36.1616C195.004 36.6059 193.19 36.7783 191.38 36.6727H157.001C154.93 36.8894 152.838 36.5535 150.938 35.6993C150.249 35.1034 149.713 34.3495 149.378 33.502C149.043 32.6544 148.919 31.7385 149.015 30.8323V22.6314H165.085C166.834 22.5468 168.587 22.7024 170.295 23.0938C170.711 23.2409 171.093 23.4695 171.419 23.7662C171.745 24.0629 172.009 24.4217 172.194 24.8216C172.792 25.91 173.102 27.1329 173.095 28.3745V30.2726H174.556V7.51948H173.119V9.39326C173.122 10.6483 172.795 11.882 172.17 12.9705C171.816 13.6983 171.223 14.2825 170.49 14.6253C168.733 15.0684 166.917 15.2326 165.109 15.112H149.015V0H146.58V15.0876H130.681C128.617 15.3143 126.53 14.9779 124.643 14.1142C123.953 13.5184 123.417 12.7645 123.083 11.9169C122.748 11.0694 122.623 10.1534 122.719 9.24726V7.44647H121.258V30.2239H122.719V28.3258C122.726 27.0612 123.062 25.8202 123.693 24.7242C124.055 24.0147 124.648 23.4486 125.373 23.1181C127.122 22.6771 128.928 22.5048 130.73 22.6071H146.702V29.2019V31.1C146.654 32.3673 146.276 33.6002 145.606 34.6772C145.251 35.4127 144.648 35.999 143.902 36.332C142.145 36.7756 140.331 36.9561 138.521 36.8673H104.215C102.143 37.0936 100.049 36.7573 98.1519 35.894C97.4783 35.3117 96.9527 34.5779 96.6183 33.7529C96.2839 32.9279 96.1503 32.0353 96.2285 31.1487V29.2019H94.7676V51.9793H96.2285V50.1055C96.223 48.8379 96.5415 47.5898 97.1537 46.4796C97.5314 45.7729 98.1299 45.2088 98.858 44.8735C100.61 44.452 102.417 44.3043 104.215 44.4355H138.594C140.344 44.3382 142.099 44.494 143.804 44.8979C144.645 45.1908 145.336 45.8028 145.728 46.6013C146.33 47.697 146.64 48.9287 146.629 50.1785V58.7201H130.681C128.617 58.9467 126.53 58.6103 124.643 57.7467C123.965 57.1669 123.434 56.4341 123.096 55.609C122.757 54.7839 122.619 53.8901 122.695 53.0014V51.1033H121.258V73.8807H122.719V72.0069C122.72 70.7185 123.056 69.4524 123.693 68.3324C124.071 67.6256 124.669 67.0616 125.397 66.7262C127.138 66.2828 128.936 66.1104 130.73 66.2152H146.702V81.2542H149.137V66.2152H165.085C166.825 66.1287 168.569 66.276 170.271 66.6532C170.69 66.8 171.075 67.0282 171.405 67.3248C171.736 67.6213 172.004 67.9803 172.194 68.381C172.792 69.4695 173.102 70.6923 173.095 71.9339V73.832H174.556V51.1033H173.119V52.977C173.122 54.2321 172.795 55.4657 172.17 56.5543C171.816 57.282 171.223 57.8663 170.49 58.209C168.732 58.6496 166.918 58.8219 165.109 58.7201H149.064V49.6432C149.121 48.5003 149.438 47.3854 149.989 46.3823C150.351 45.6727 150.943 45.1066 151.669 44.7762C153.418 44.3351 155.224 44.1628 157.025 44.2652H191.405C193.155 44.1679 194.91 44.3236 196.615 44.7275C197.032 44.8655 197.416 45.088 197.743 45.3811C198.069 45.6743 198.332 46.0317 198.514 46.431C199.124 47.5243 199.443 48.7562 199.439 50.0082V51.882H200.9L200.852 29.0559Z" fill="#0F5B96"/>
<path d="M7.79135 120.763V129.572C7.79135 132.59 8.40005 133.66 11.5166 133.66H11.6627V134.561H0V133.66H0.267828C3.01915 133.66 3.94437 132.93 3.94437 130.278V109.861C3.94437 107.427 3.16524 106.746 0.608699 106.551V105.675H11.6627V106.551C8.35135 106.551 7.79135 107.452 7.79135 111.005V119.084H26.0036V109.958C26.0036 107.525 25.2245 106.551 22.3271 106.551H21.4506V105.675H33.3811V106.551C30.6054 106.551 29.8506 107.5 29.8506 110.372V129.621C29.8506 132.93 30.8002 133.66 33.5759 133.66H34.0872V134.561H20.8906V133.66H22.3271C25.3462 133.66 26.0036 132.59 26.0036 130.181V120.763H7.79135Z" fill="#0F5B96"/>
<path d="M43.8257 128.793L42.6083 132.054C42.4247 132.477 42.2859 132.917 42.1944 133.368C42.1944 133.952 42.7301 134.147 43.8744 134.147H44.2153V134.561H39.3457V134.147C40.7092 134.147 40.9283 133.904 41.5857 132.079L45.5301 121.712L45.3353 121.25H47.1371L51.5197 132.833C51.5578 133.044 51.6372 133.245 51.7534 133.426C51.8695 133.606 52.0201 133.762 52.1965 133.884C52.3729 134.006 52.5717 134.092 52.7814 134.137C52.9912 134.182 53.2078 134.186 53.4188 134.147V134.561H47.6727V134.147H48.2084C49.4014 134.147 49.8397 134.147 49.8397 133.441C49.819 133.146 49.7447 132.858 49.6205 132.59L48.2084 128.793H43.8257ZM45.944 123.002L44.1666 127.869H47.7944L45.944 123.002Z" fill="#0F5B96"/>
<path d="M64.2051 134.561L58.8729 123.415L58.3129 132.809C58.3129 133.879 59.0433 134.123 59.9929 134.147V134.561H55.5859V134.147C57.1199 134.147 57.3146 133.831 57.412 131.908L57.9233 123.805C57.9233 122.418 57.9233 122.053 56.6572 121.955V121.59H59.8225L64.8382 132.103L69.8538 121.59H73.0434V121.955C72.0208 121.955 71.6312 122.077 71.6799 122.783L72.3373 132.225C72.4591 134.147 72.6295 134.147 74.1634 134.147V134.561H68.6608V134.147C69.6591 134.147 70.6086 133.879 70.5356 132.784L69.9269 123.415L64.7164 134.561H64.2051Z" fill="#0F5B96"/>
<path d="M84.9259 134.877C83.9948 134.957 83.0571 134.848 82.1692 134.556C81.2814 134.265 80.4615 133.797 79.7589 133.181C79.0563 132.565 78.4854 131.814 78.0805 130.972C77.6755 130.13 77.4449 129.215 77.4024 128.282C77.3998 127.305 77.5992 126.337 77.9881 125.44C78.3769 124.542 78.9468 123.735 79.6621 123.068C80.3774 122.401 81.2228 121.889 82.1453 121.563C83.0678 121.238 84.0475 121.106 85.0233 121.177C85.9273 121.117 86.8341 121.237 87.6915 121.53C88.5488 121.822 89.3398 122.282 90.0188 122.881C90.6978 123.481 91.2513 124.208 91.6476 125.023C92.0439 125.837 92.275 126.721 92.3277 127.625C92.3213 128.588 92.1245 129.54 91.7485 130.427C91.3724 131.313 90.8247 132.117 90.1367 132.791C89.4487 133.465 88.6341 133.996 87.7398 134.354C86.8455 134.712 85.8892 134.89 84.9259 134.877ZM84.4876 121.785C83.7578 121.825 83.0433 122.011 82.3868 122.332C81.7302 122.653 81.1449 123.102 80.6657 123.654C80.1864 124.206 79.823 124.848 79.5971 125.543C79.3711 126.237 79.2871 126.971 79.3502 127.698C79.2873 128.535 79.3949 129.376 79.6664 130.17C79.9379 130.964 80.3678 131.695 80.9299 132.318C81.4921 132.941 82.1749 133.444 82.9371 133.796C83.6992 134.148 84.5249 134.342 85.3642 134.366C86.0949 134.328 86.81 134.14 87.4654 133.815C88.1208 133.49 88.7026 133.034 89.1748 132.475C89.6471 131.916 89.9998 131.267 90.2112 130.567C90.4227 129.867 90.4883 129.131 90.4042 128.404C90.485 127.574 90.3929 126.736 90.1335 125.944C89.8742 125.151 89.4532 124.42 88.8973 123.799C88.3414 123.177 87.6625 122.677 86.9035 122.33C86.1446 121.983 85.322 121.798 84.4876 121.785Z" fill="#0F5B96"/>
<path d="M109.566 134.706L98.6341 123.415V132.37C98.6341 133.855 98.9749 134.171 100.752 134.171V134.585H95.8828V134.171C97.1975 134.171 97.6115 133.733 97.6115 132.784V122.49C97.0953 122.137 96.4837 121.951 95.8584 121.955V121.566H99.121L108.86 131.811V123.415C108.86 122.15 108.495 121.906 106.815 121.858V121.468H111.685V121.858C110.126 121.858 109.785 122.15 109.785 122.953V134.609L109.566 134.706Z" fill="#0F5B96"/>
<path d="M144.359 134.561H133.062V133.66C135.935 133.539 136.543 132.784 136.543 129.669V109.91C136.543 107.476 135.667 106.697 133.062 106.551V105.675H144.359V106.551C141.413 106.551 140.39 107.208 140.39 110.323V130.01C140.39 132.736 141.145 133.66 144.359 133.66V134.561Z" fill="#0F5B96"/>
<path d="M164.593 134.706L153.782 123.415V132.37C153.782 133.855 154.123 134.171 155.901 134.171V134.585H150.958V134.171C152.273 134.171 152.687 133.733 152.687 132.784V122.49C152.171 122.137 151.559 121.951 150.934 121.955V121.566H154.367L164.106 131.811V123.415C164.106 122.15 163.741 121.906 162.061 121.858V121.468H166.93V121.858C165.348 121.858 165.031 122.15 165.031 122.953V134.609L164.593 134.706Z" fill="#0F5B96"/>
<path d="M175.866 134.877L171.337 123.586C170.826 122.272 170.582 121.955 169.292 121.955V121.566H175.038V121.955C173.115 121.955 172.603 122.442 173.066 123.415L176.816 132.76L180.176 124.145C180.375 123.733 180.498 123.288 180.541 122.831C180.541 122.223 180.029 121.955 178.593 121.955V121.566H183.463V121.955C182.391 121.955 181.807 122.466 181.32 123.756L177.01 134.877H175.866Z" fill="#0F5B96"/>
<path d="M195.076 129.864H194.784C194.614 128.38 194.224 128.209 193.372 128.209H189.72V132.663C189.72 133.612 190.085 133.806 190.864 133.806H194.078C195.539 133.806 195.977 133.247 196.513 131.373H196.903L196.562 134.488H185.459V134.074H186.043C187.699 134.074 187.991 133.612 187.991 132.371V123.634C187.991 122.466 187.723 121.955 186.336 121.955H185.873V121.566H195.904L196.05 124.462H195.685C195.417 122.685 194.882 122.32 194.127 122.32H189.72V127.455H193.469C194.224 127.455 194.589 127.09 194.687 125.898H195.076V129.864Z" fill="#0F5B96"/>
<path d="M200.92 131.373C201.075 132.21 201.522 132.965 202.182 133.504C202.842 134.044 203.671 134.331 204.523 134.317C204.873 134.354 205.227 134.32 205.563 134.216C205.9 134.112 206.211 133.942 206.48 133.714C206.748 133.487 206.968 133.207 207.126 132.893C207.283 132.578 207.375 132.235 207.396 131.884C207.396 128.866 200.7 127.966 200.7 124.316C200.737 123.87 200.862 123.437 201.069 123.041C201.277 122.645 201.561 122.295 201.906 122.011C202.252 121.728 202.65 121.516 203.079 121.389C203.508 121.263 203.957 121.223 204.401 121.274C206.179 121.274 206.52 121.809 207.25 121.809C207.42 121.809 207.494 121.809 207.64 121.59H207.956L208.321 124.243H207.956C207.706 123.546 207.252 122.941 206.652 122.507C206.053 122.073 205.336 121.829 204.596 121.809C203.233 121.809 202.161 122.588 202.161 123.756C202.161 126.725 208.857 127.528 208.857 131.373C208.815 131.892 208.668 132.398 208.425 132.858C208.182 133.319 207.847 133.726 207.442 134.054C207.037 134.381 206.569 134.623 206.067 134.765C205.565 134.906 205.04 134.945 204.523 134.877C203.543 134.774 202.574 134.587 201.626 134.317C201.542 134.321 201.461 134.345 201.388 134.387C201.316 134.43 201.256 134.489 201.212 134.561H200.871L200.433 131.373H200.92Z" fill="#0F5B96"/>
<path d="M219.57 132.638C219.57 133.757 219.935 134.147 221.226 134.147H221.981V134.56H215.407V134.147H216.186C217.452 134.147 217.841 133.757 217.841 132.638V122.32H214.262C213.41 122.32 213.045 122.807 212.728 124.753H212.314L212.631 121.371H213.045C213.051 121.432 213.076 121.49 213.115 121.537C213.154 121.585 213.205 121.62 213.264 121.639H213.678H223.734C224.026 121.639 224.318 121.639 224.367 121.322H224.756L225.097 124.705H224.732C224.415 122.88 224.026 122.271 223.198 122.271H219.57V132.638Z" fill="#0F5B96"/>
<path d="M236.442 134.561L231.135 123.415L230.575 132.809C230.575 133.879 231.305 134.123 232.255 134.147V134.561H227.848V134.147C229.382 134.147 229.552 133.831 229.674 131.908L230.161 123.805C230.161 122.418 230.161 122.053 228.919 121.955V121.59H232.06L237.1 132.103L242.116 121.59H245.183V121.955C244.161 121.955 243.771 122.077 243.796 122.783L244.477 132.225C244.477 134.147 244.769 134.147 246.279 134.147V134.561H241.044V134.147C242.018 134.147 242.992 133.879 242.895 132.784L242.164 123.415L236.954 134.561H236.442Z" fill="#0F5B96"/>
<path d="M258.235 129.864H257.821C257.675 128.38 257.261 128.209 256.408 128.209H252.878V132.663C252.878 133.612 253.243 133.806 254.022 133.806H257.236C258.697 133.806 259.135 133.247 259.671 131.373H260.036L259.72 134.488H248.593V134.074H249.177C250.857 134.074 251.149 133.612 251.149 132.371V123.634C251.149 122.466 250.881 121.955 249.469 121.955H249.031V121.566H259.038L259.208 124.462H258.843C258.551 122.685 258.04 122.32 257.285 122.32H252.878V127.455H256.628C257.382 127.455 257.723 127.09 257.821 125.898H258.235V129.864Z" fill="#0F5B96"/>
<path d="M276.934 134.706L266.123 123.415V132.37C266.123 133.855 266.44 134.171 268.217 134.171V134.585H263.348V134.171C264.638 134.171 265.052 133.733 265.052 132.784V122.49C264.536 122.137 263.924 121.951 263.299 121.955V121.566H266.586L276.325 131.811V123.415C276.325 122.15 275.935 121.906 274.255 121.858V121.468H279.125V121.858C277.567 121.858 277.226 122.15 277.226 122.953V134.609L276.934 134.706Z" fill="#0F5B96"/>
<path d="M289.472 132.638C289.472 133.757 289.838 134.147 291.128 134.147H291.883V134.56H285.309V134.147H286.088C287.354 134.147 287.744 133.757 287.744 132.638V122.32H284.116C283.264 122.32 282.899 122.807 282.582 124.753H282.217L282.533 121.371H282.947C282.954 121.432 282.978 121.49 283.017 121.537C283.056 121.585 283.108 121.62 283.166 121.639H283.58H293.636C293.928 121.639 294.22 121.639 294.269 121.322H294.61L294.951 124.705H294.61C294.293 122.88 293.904 122.271 293.076 122.271H289.448L289.472 132.638Z" fill="#0F5B96"/>
</svg>
