<svg width="339" height="41" viewBox="0 0 339 41" fill="none" xmlns="http://www.w3.org/2000/svg">
<path d="M52.7389 14.3673H52.0758V15.2956C52.0765 15.9223 51.9167 16.5386 51.6117 17.086C51.4328 17.4462 51.1366 17.7347 50.7717 17.9038C49.8954 18.106 48.9956 18.1878 48.0972 18.147H30.967C29.9321 18.2644 28.8849 18.0963 27.9388 17.6607C27.6118 17.3641 27.3563 16.9971 27.1917 16.5874C27.027 16.1778 26.9575 15.7361 26.9884 15.2956V11.2065H34.9677C35.8357 11.1691 36.7048 11.2434 37.5538 11.4275C37.9698 11.5819 38.3102 11.8906 38.5043 12.2895C38.7929 12.8344 38.9446 13.4413 38.9464 14.0578V15.0083H39.6758V3.69128H38.9685V4.64174C38.9747 5.26501 38.8062 5.87756 38.4822 6.41001C38.3165 6.77957 38.0161 7.07204 37.6423 7.22785C36.7709 7.46001 35.8677 7.54958 34.9677 7.49309H26.9884V0H25.7948V7.49309H17.948C16.9207 7.5978 15.8839 7.43008 14.942 7.00681C14.6149 6.7102 14.3594 6.34323 14.1948 5.93355C14.0302 5.52387 13.9607 5.08218 13.9915 4.64174V3.71339H13.2842V15.0304H14.0136V14.102C14.0101 13.468 14.17 12.8438 14.4778 12.2895C14.6578 11.9355 14.9544 11.6544 15.3177 11.4938C16.1865 11.2915 17.079 11.2097 17.9701 11.2507H25.9053V14.522V15.4503C25.906 16.077 25.7462 16.6934 25.4411 17.2407C25.2497 17.5915 24.957 17.8765 24.6012 18.0586C23.7249 18.2607 22.8251 18.3425 21.9267 18.3017H4.68594C3.65828 18.4185 2.6183 18.2503 1.67987 17.8154C1.33772 17.53 1.07032 17.1654 0.900855 16.7533C0.731388 16.3411 0.664954 15.8939 0.707311 15.4503V14.522H0V25.839H0.729415V24.9106C0.756923 24.3102 0.931497 23.7258 1.23779 23.2087C1.41663 22.8485 1.7129 22.56 2.07773 22.3908C2.94653 22.1885 3.83904 22.1067 4.73015 22.1477H21.8162C22.6843 22.0993 23.5549 22.1737 24.4023 22.3687C24.8155 22.5158 25.156 22.8167 25.3527 23.2087C25.6414 23.7614 25.7931 24.3755 25.7948 24.9991V29.2429H17.948C16.9204 29.3597 15.8804 29.1915 14.942 28.7567C14.6053 28.4677 14.3432 28.1019 14.1777 27.6903C14.0123 27.2786 13.9484 26.8331 13.9915 26.3916V25.419H13.2621V36.6918H13.9915V35.7635C13.988 35.1295 14.1479 34.5053 14.4557 33.951C14.6356 33.5969 14.9323 33.3158 15.2956 33.1553C16.1608 32.9314 17.0566 32.8493 17.948 32.9121H25.8832V40.3831H27.121V32.89H35.0561C35.9253 32.8492 36.7959 32.931 37.6423 33.1331C37.851 33.1981 38.0437 33.3065 38.2075 33.4512C38.3713 33.596 38.5026 33.7739 38.5927 33.9731C38.8838 34.517 39.0357 35.1245 39.0348 35.7414V36.6918H39.7642V25.419H39.0348V26.3695C39.0388 26.9895 38.8786 27.5996 38.5706 28.1378C38.4049 28.5073 38.1045 28.7998 37.7307 28.9556C36.8574 29.1771 35.9559 29.2665 35.0561 29.2208H27.121V24.8001C27.1395 24.2321 27.299 23.6776 27.5852 23.1866C27.7509 22.817 28.0513 22.5245 28.4251 22.3687C29.2939 22.1664 30.1864 22.0846 31.0775 22.1256H48.1635C49.0317 22.0772 49.9023 22.1516 50.7496 22.3466C51.157 22.4945 51.4902 22.796 51.678 23.1866C51.9831 23.7339 52.1429 24.3503 52.1422 24.977V25.9053H52.8716L52.7389 14.3673Z" fill="#0F5B96"/>
<path d="M82.2239 20.9977V28.6455C82.2239 31.2538 82.7544 32.1821 85.451 32.1821H85.5615V32.9557H75.416V32.1821H75.6591C78.0242 32.1821 78.8421 31.5411 78.8421 29.2423V11.5595C78.8421 9.48181 78.1568 8.86292 75.9465 8.70819V7.93457H85.5173V8.70819C82.666 8.70819 82.1797 9.48181 82.1797 12.5763V19.5831H97.9616V11.648C97.9616 9.43761 97.2764 8.70819 94.7787 8.70819H94.0714V7.93457H104.416V8.70819C102.007 8.70819 101.366 9.50392 101.366 12.0016V28.7119C101.366 31.5632 102.161 32.2042 104.571 32.2042H104.991V32.9778H93.5188V32.2042H94.7787C97.3869 32.2042 97.9616 31.2759 97.9616 29.1981V20.9977H82.2239Z" fill="#0F5B96"/>
<path d="M117.589 28.734H113.632L112.881 30.9443C112.789 31.1628 112.729 31.3937 112.704 31.6295C112.704 32.0716 113.235 32.2926 114.318 32.2926H114.539V32.9999H109.742V32.2926H110.007C110.2 32.3046 110.394 32.2775 110.576 32.213C110.759 32.1484 110.926 32.0477 111.068 31.9169C111.396 31.5472 111.638 31.1093 111.776 30.6349L114.87 21.9924L114.693 21.4619H117.412L121.015 30.657C121.167 31.1397 121.432 31.5792 121.789 31.939C122.094 32.1541 122.454 32.2769 122.827 32.2926V32.9999H116.948V32.2926H117.589C118.296 32.2926 118.65 32.0716 118.65 31.6074C118.643 31.364 118.591 31.1241 118.495 30.9001L117.589 28.734ZM117.169 27.7393L115.511 23.5175L113.964 27.7393H117.169Z" fill="#0F5B96"/>
<path d="M132.001 32.9353L127.868 24.0939L127.448 30.5481V31.1007C127.423 31.4457 127.534 31.7868 127.757 32.0511C128.116 32.2676 128.533 32.3679 128.951 32.3385V33.0458H125.017V32.3385C125.68 32.3385 126.078 32.2058 126.232 31.9848C126.455 31.4927 126.561 30.9555 126.542 30.4155L126.94 23.7844C127.004 23.4138 126.941 23.0324 126.763 22.7013C126.63 22.5245 126.277 22.414 125.724 22.3919V21.6846H129.437L132.841 29.4429L136.223 21.8393H140.135V22.5466C139.778 22.5477 139.421 22.5923 139.074 22.6792C138.898 22.6792 138.787 22.9666 138.787 23.3644V23.9391L139.229 30.5702C139.235 31.0209 139.309 31.4682 139.45 31.8964C139.45 32.1395 140.003 32.2943 140.821 32.3606V33.0679H135.162V32.3606H135.472C135.844 32.3867 136.216 32.3182 136.555 32.1616C136.776 32.029 136.886 31.6975 136.886 31.1891V30.327L136.466 23.8949L132.399 33.0679L132.001 32.9353Z" fill="#0F5B96"/>
<path d="M150.392 33.1765C148.65 33.2585 146.943 32.6736 145.617 31.5408C145.038 31.0347 144.577 30.4089 144.264 29.7067C143.951 29.0044 143.794 28.2425 143.805 27.4738C143.783 26.639 143.946 25.8098 144.282 25.0455C144.618 24.2812 145.119 23.6008 145.75 23.0531C147.144 21.8798 148.924 21.2655 150.745 21.329C152.442 21.2525 154.103 21.8301 155.387 22.9426C155.985 23.4565 156.459 24.0995 156.773 24.8231C157.087 25.5467 157.233 26.3321 157.199 27.1201C157.222 27.9487 157.066 28.7724 156.742 29.5353C156.418 30.2982 155.933 30.9822 155.321 31.5408C153.952 32.7054 152.185 33.292 150.392 33.1765V33.1765ZM150.392 22.1247C149.867 22.1056 149.345 22.2073 148.866 22.4219C148.387 22.6365 147.964 22.9583 147.629 23.3625C146.898 24.2914 146.529 25.4536 146.59 26.6338C146.521 28.1295 146.948 29.6061 147.805 30.8335C148.149 31.3342 148.612 31.7416 149.152 32.0194C149.692 32.2972 150.293 32.4365 150.9 32.425C151.421 32.452 151.94 32.349 152.41 32.1252C152.881 31.9013 153.289 31.5638 153.597 31.143C154.304 30.162 154.655 28.9688 154.591 27.7611C154.638 26.333 154.236 24.926 153.442 23.7383C153.105 23.2171 152.639 22.7923 152.089 22.5055C151.538 22.2188 150.923 22.08 150.303 22.1026L150.392 22.1247Z" fill="#0F5B96"/>
<path d="M162.725 23.9146V30.7446C162.725 31.3635 162.858 31.7614 163.123 31.9382C163.546 32.1759 164.033 32.2763 164.515 32.2255V32.9328H160.095V32.2255C160.457 32.2453 160.818 32.161 161.133 31.9824C161.255 31.8672 161.348 31.7255 161.406 31.5682C161.463 31.411 161.484 31.2426 161.465 31.0761V22.6989C161.042 22.4149 160.538 22.2753 160.028 22.3011V21.5938H163.72L171.102 29.3079V23.8483C171.162 23.3942 171.043 22.9346 170.771 22.5663C170.345 22.3348 169.859 22.2421 169.378 22.3011H169.223V21.5938H173.887V22.3011H173.71C173.317 22.2766 172.923 22.3447 172.561 22.5C172.441 22.5759 172.345 22.6855 172.286 22.8151C172.227 22.9447 172.208 23.0887 172.229 23.2294V32.9107H171.213L162.725 23.9146Z" fill="#0F5B96"/>
<path d="M202.202 32.9343H192.433V32.1607C194.93 32.1607 195.461 31.4092 195.461 28.7126V11.6487C195.461 9.43832 194.687 8.88574 192.433 8.75312V7.97949H202.202V8.75312C199.683 8.75312 198.798 9.32781 198.798 12.0244V29.0662C198.798 31.4534 199.439 32.2491 202.202 32.2491V32.9343Z" fill="#0F5B96"/>
<path d="M210.491 23.9146V30.7446C210.491 31.3635 210.624 31.7614 210.889 31.9382C211.321 32.1737 211.814 32.2738 212.304 32.2255V32.9328H207.883V32.2255H207.993C208.342 32.2581 208.693 32.1971 209.01 32.0487C209.132 31.9336 209.225 31.7918 209.282 31.6345C209.34 31.4773 209.36 31.3089 209.342 31.1425V22.6989C208.909 22.4174 208.399 22.2783 207.883 22.3011V21.5938H211.618L219.045 29.33V23.8704C219.089 23.4204 218.98 22.9688 218.736 22.5884C218.298 22.3691 217.808 22.2772 217.321 22.3232H217.144V21.6159H221.808V22.3232H221.631C221.238 22.2987 220.844 22.3668 220.482 22.5221C220.361 22.5981 220.266 22.7076 220.207 22.8372C220.148 22.9668 220.128 23.1108 220.15 23.2515V32.9328H219.045L210.491 23.9146Z" fill="#0F5B96"/>
<path d="M230.14 33.1777L225.874 23.8942C225.688 23.4456 225.434 23.0282 225.122 22.6564C224.788 22.4409 224.392 22.34 223.995 22.3691H223.862V21.6617H230.14V22.3691H229.83C228.836 22.3691 228.327 22.6343 228.327 23.1206C228.351 23.417 228.442 23.7042 228.592 23.9605L231.422 30.0169L234.207 23.3858C234.229 23.2764 234.229 23.1637 234.207 23.0543C234.207 22.5901 233.787 22.347 232.947 22.347H232.593V21.6396H237.169V22.347H237.036C236.65 22.3224 236.268 22.4317 235.953 22.6564C235.517 23.1181 235.185 23.6685 234.98 24.27L231.223 33.1114L230.14 33.1777Z" fill="#0F5B96"/>
<path d="M248.796 24.2915C248.757 23.8533 248.637 23.4262 248.443 23.0316C248.339 22.8994 248.203 22.7956 248.049 22.7299C247.894 22.6641 247.726 22.6387 247.558 22.6558H243.602V26.7449H246.52C246.896 26.7744 247.271 26.6729 247.58 26.4576C247.814 26.1729 247.925 25.8073 247.89 25.4408H248.597V29.0437H247.912C247.912 28.4469 247.779 28.0933 247.536 27.9385C247.135 27.7848 246.706 27.717 246.276 27.7396H243.624V31.0109C243.571 31.2511 243.571 31.5001 243.624 31.7403C243.624 31.873 243.889 31.9393 244.177 31.9393H247.183C247.454 31.9737 247.729 31.948 247.988 31.864C248.248 31.7799 248.486 31.6396 248.686 31.453C248.982 31.045 249.185 30.5773 249.282 30.0826H249.968L249.747 32.9339H238.85V32.2266H239.601C239.98 32.2478 240.354 32.1386 240.662 31.9172C240.793 31.7896 240.894 31.6335 240.955 31.4611C241.016 31.2886 241.037 31.1043 241.016 30.9225V23.6947C241.038 23.5027 241.017 23.3083 240.956 23.1251C240.895 22.9418 240.795 22.7741 240.662 22.6337C240.284 22.4265 239.854 22.3343 239.424 22.3684H239.247V21.6611H249.216L249.393 24.2915H248.796Z" fill="#0F5B96"/>
<path d="M253.637 32.8899L253.195 29.5965H253.903C254.499 31.4089 255.538 32.3152 256.997 32.3152C257.536 32.3321 258.063 32.1513 258.478 31.8068C258.663 31.6511 258.813 31.4587 258.92 31.2418C259.026 31.0249 259.087 30.7883 259.097 30.5469C259.073 30.127 258.919 29.725 258.655 29.3975C257.967 28.7526 257.175 28.2294 256.312 27.8503C255.366 27.4315 254.521 26.8132 253.836 26.0378C253.477 25.543 253.284 24.9473 253.284 24.3358C253.261 23.9125 253.341 23.49 253.519 23.1048C253.696 22.7197 253.964 22.3835 254.3 22.1255C255.061 21.5503 256 21.2608 256.953 21.3076C257.565 21.3109 258.174 21.3926 258.765 21.5508L259.694 21.7718C259.774 21.7711 259.853 21.753 259.926 21.7186C259.998 21.6843 260.062 21.6346 260.114 21.5729H260.489L260.821 24.5127H260.114C259.928 23.8154 259.535 23.191 258.986 22.7223C258.465 22.3068 257.818 22.0808 257.152 22.0813C256.702 22.0619 256.258 22.1942 255.892 22.457C255.738 22.5483 255.611 22.6775 255.522 22.8324C255.433 22.9873 255.385 23.1625 255.384 23.3412C255.386 23.6699 255.512 23.9857 255.737 24.2253C256.4 24.8029 257.145 25.2795 257.948 25.6399C258.953 26.1143 259.861 26.7742 260.622 27.585C261.148 28.199 261.424 28.9877 261.396 29.7954C261.398 30.2501 261.3 30.6997 261.109 31.1123C260.918 31.5249 260.639 31.8903 260.291 32.1826C259.528 32.8483 258.539 33.1963 257.528 33.1551C256.861 33.1587 256.198 33.0619 255.56 32.8678L254.455 32.5804C254.366 32.577 254.279 32.6034 254.207 32.6555C254.135 32.7075 254.082 32.7823 254.057 32.8678L253.637 32.8899Z" fill="#0F5B96"/>
<path d="M271.717 22.7003V30.967C271.695 31.1642 271.717 31.3638 271.782 31.5513C271.847 31.7387 271.954 31.9092 272.093 32.0501C272.467 32.2465 272.887 32.3381 273.309 32.3154H273.729V33.0227H267.208V32.3154H267.827C268.213 32.3364 268.594 32.2274 268.91 32.0059C269.134 31.7074 269.243 31.3391 269.22 30.967V22.7003H267.009C266.524 22.6374 266.033 22.7641 265.639 23.054C265.33 23.5984 265.134 24.2 265.064 24.8223H264.269L264.6 21.4404H265.197C265.308 21.5531 265.444 21.6394 265.593 21.693C265.742 21.7465 265.901 21.766 266.059 21.7499H274.679C274.837 21.766 274.996 21.7465 275.145 21.693C275.295 21.6394 275.43 21.5531 275.541 21.4404H276.116L276.448 24.8223H275.696C275.632 24.1988 275.436 23.596 275.121 23.054C274.727 22.7641 274.236 22.6374 273.751 22.7003H271.717Z" fill="#0F5B96"/>
<path d="M286.108 32.9353L281.975 24.0939L281.555 30.5481V31.1007C281.554 31.2776 281.589 31.4529 281.658 31.6161C281.726 31.7793 281.826 31.9272 281.953 32.0511C282.311 32.2676 282.728 32.3679 283.146 32.3385V33.0458H279.146V32.3385C279.809 32.3385 280.206 32.2058 280.361 31.9848C280.584 31.4927 280.69 30.9555 280.671 30.4155L281.069 23.7844C281.133 23.4138 281.07 23.0324 280.892 22.7013C280.749 22.5807 280.584 22.4909 280.405 22.4376C280.226 22.3843 280.038 22.3688 279.853 22.3919V21.6846H283.677L287.213 29.2882L290.595 21.6846H294.507V22.3919C294.15 22.393 293.793 22.4375 293.446 22.5245C293.27 22.5245 293.159 22.8118 293.159 23.2097V23.7844L293.601 30.4155C293.607 30.8662 293.681 31.3135 293.822 31.7417C293.822 31.9848 294.375 32.1395 295.193 32.2058V32.9131H289.49V32.0511H289.799C290.171 32.0772 290.544 32.0088 290.882 31.8522C291.103 31.7196 291.192 31.388 291.192 30.8796V30.0618L290.794 23.6297L286.727 32.8026L286.108 32.9353Z" fill="#0F5B96"/>
<path d="M306.796 24.2915C306.757 23.8533 306.637 23.4262 306.442 23.0316C306.339 22.8994 306.203 22.7956 306.049 22.7299C305.894 22.6641 305.725 22.6387 305.558 22.6558H301.602V26.7449H304.519C304.896 26.7744 305.27 26.6729 305.58 26.4576C305.7 26.3193 305.79 26.1574 305.843 25.9822C305.897 25.807 305.912 25.6225 305.89 25.4408H306.597V29.0437H305.89C305.89 28.4469 305.757 28.0933 305.514 27.9385C305.113 27.7848 304.683 27.717 304.254 27.7396H301.602V31.0109C301.583 31.2593 301.62 31.5088 301.712 31.7403C301.712 31.873 301.977 31.9393 302.265 31.9393H305.293C305.564 31.9737 305.839 31.948 306.099 31.864C306.359 31.7799 306.597 31.6396 306.796 31.453C307.086 31.0437 307.282 30.5759 307.371 30.0826H308.078L307.857 32.9339H296.96V32.2266H297.712C298.09 32.2478 298.465 32.1386 298.772 31.9172C298.895 31.7837 298.99 31.6268 299.051 31.4559C299.111 31.285 299.137 31.1036 299.126 30.9225V23.6947C299.148 23.5027 299.128 23.3083 299.067 23.1251C299.006 22.9418 298.905 22.7741 298.772 22.6337C298.395 22.4265 297.964 22.3343 297.535 22.3684H297.424V21.6611H307.393L307.57 24.2915H306.796Z" fill="#0F5B96"/>
<path d="M313.249 23.9146V30.7446C313.249 31.3635 313.382 31.7614 313.647 31.9382C314.07 32.1759 314.557 32.2763 315.039 32.2255V32.9328H310.619V32.2255C310.981 32.2453 311.342 32.161 311.658 31.9824C311.779 31.8672 311.872 31.7255 311.93 31.5682C311.987 31.411 312.008 31.2426 311.989 31.0761V22.6989C311.556 22.4174 311.046 22.2783 310.53 22.3011V21.5938H314.266L321.737 29.3079V23.8483C321.737 23.1852 321.737 22.7652 321.427 22.5663C320.99 22.347 320.5 22.255 320.013 22.3011H319.836V21.5938H324.522V22.3011H324.345C323.944 22.2787 323.544 22.3467 323.173 22.5C323.053 22.5759 322.958 22.6855 322.899 22.8151C322.84 22.9447 322.82 23.0887 322.842 23.2294V32.9107H321.737L313.249 23.9146Z" fill="#0F5B96"/>
<path d="M334.336 22.7003V30.967C334.314 31.1624 334.334 31.3602 334.395 31.5471C334.456 31.7339 334.557 31.9055 334.69 32.0501C335.064 32.2465 335.484 32.3381 335.906 32.3154H336.348V33.0227H329.717V32.3154H330.336C330.714 32.3366 331.089 32.2274 331.397 32.0059C331.635 31.7144 331.754 31.3429 331.728 30.967V22.7003H329.518C329.033 22.6374 328.542 22.7641 328.147 23.054C327.816 23.5883 327.619 24.195 327.573 24.8223H326.821L327.153 21.4404H327.728C327.842 21.5495 327.977 21.6333 328.126 21.6866C328.274 21.74 328.432 21.7615 328.59 21.7499H337.21C337.371 21.7619 337.532 21.7406 337.684 21.6874C337.836 21.6341 337.976 21.5501 338.094 21.4404H338.669L339 24.8223H338.337C338.267 24.2 338.072 23.5984 337.763 23.054C337.36 22.7627 336.862 22.6362 336.37 22.7003H334.336Z" fill="#0F5B96"/>
</svg>
