<svg width="395" height="188" viewBox="0 0 395 188" fill="none" xmlns="http://www.w3.org/2000/svg">
<g clip-path="url(#clip0_2647_917)">
<path d="M256.542 38.8966H254.586V41.405C254.59 43.085 254.151 44.7365 253.314 46.1937C252.85 47.1744 252.053 47.9592 251.065 48.4089C248.712 49.0037 246.282 49.2344 243.86 49.0931H197.827C195.053 49.3831 192.252 48.9335 189.709 47.79C188.785 46.9923 188.068 45.9831 187.62 44.8485C187.171 43.7139 187.004 42.4877 187.133 41.2747V30.2963H208.65C210.993 30.183 213.341 30.3912 215.627 30.9153C216.184 31.1122 216.695 31.4182 217.132 31.8154C217.569 32.2126 217.922 32.6929 218.17 33.2282C218.97 34.6853 219.385 36.3223 219.376 37.9844V40.5254H221.332V10.0662H219.409V12.5746C219.413 14.2547 218.974 15.9062 218.137 17.3634C217.664 18.3376 216.87 19.1197 215.888 19.5786C213.535 20.1718 211.104 20.3916 208.683 20.2301H187.133V0H183.873V20.1975H162.584C159.821 20.5009 157.027 20.0506 154.499 18.8945C153.576 18.0968 152.859 17.0876 152.41 15.953C151.962 14.8184 151.795 13.5922 151.924 12.3791V9.96846H149.968V40.4602H151.924V37.9193C151.933 36.2264 152.382 34.565 153.228 33.0979C153.713 32.148 154.506 31.3902 155.477 30.9478C157.819 30.3574 160.238 30.1267 162.65 30.2637H184.036V39.092V41.633C183.972 43.3295 183.466 44.9799 182.569 46.4218C182.094 47.4064 181.286 48.1912 180.287 48.637C177.934 49.2309 175.506 49.4724 173.082 49.3537H127.146C124.373 49.6565 121.568 49.2064 119.029 48.0506C118.127 47.2711 117.423 46.2888 116.975 45.1844C116.527 44.08 116.348 42.8851 116.453 41.6981V39.092H114.497V69.5838H116.453V67.0754C116.446 65.3784 116.872 63.7077 117.692 62.2215C118.198 61.2753 118.999 60.5203 119.974 60.0714C122.32 59.5072 124.74 59.3094 127.146 59.485H173.18C175.523 59.3548 177.873 59.5633 180.157 60.104C181.282 60.4962 182.207 61.3154 182.732 62.3843C183.538 63.8511 183.953 65.5 183.938 67.1731V78.6075H162.584C159.821 78.9109 157.027 78.4606 154.499 77.3045C153.591 76.5283 152.881 75.5474 152.428 74.4428C151.974 73.3382 151.79 72.1417 151.891 70.952V68.411H149.968V98.9028H151.924V96.3944C151.925 94.6696 152.374 92.9747 153.228 91.4753C153.733 90.5292 154.535 89.7741 155.51 89.3253C157.84 88.7316 160.249 88.5008 162.65 88.6411H184.036V108.774H187.296V88.6411H208.65C210.981 88.5253 213.316 88.7225 215.594 89.2275C216.155 89.4239 216.672 89.7295 217.114 90.1265C217.556 90.5235 217.915 91.0041 218.17 91.5405C218.97 92.9976 219.385 94.6346 219.376 96.2967V98.8376H221.332V68.411H219.409V70.9194C219.413 72.5995 218.974 74.251 218.137 75.7082C217.664 76.6825 216.87 77.4645 215.888 77.9234C213.534 78.5132 211.105 78.7438 208.683 78.6075H187.198V66.4564C187.276 64.9265 187.699 63.4339 188.437 62.0911C188.923 61.1412 189.716 60.3834 190.687 59.9411C193.029 59.3507 195.447 59.12 197.859 59.257H243.893C246.236 59.1268 248.586 59.3352 250.869 59.8759C251.427 60.0607 251.941 60.3585 252.379 60.7509C252.816 61.1433 253.168 61.6218 253.412 62.1563C254.229 63.62 254.656 65.2691 254.651 66.9451V69.4535H256.607L256.542 38.8966Z" fill="white"/>
<path d="M10.4325 169.106V180.898C10.4325 184.938 11.2475 186.371 15.4205 186.371H15.6161V187.576H0V186.371H0.358617C4.04259 186.371 5.28145 185.394 5.28145 181.843V154.511C5.28145 151.253 4.2382 150.341 0.815038 150.081V148.908H15.6161V150.081C11.1823 150.081 10.4325 151.286 10.4325 156.042V166.858H34.8184V154.641C34.8184 151.384 33.7752 150.081 29.8956 150.081H28.7219V148.908H44.6967V150.081C40.9801 150.081 39.9695 151.351 39.9695 155.195V180.963C39.9695 185.394 41.2409 186.371 44.9575 186.371H45.6421V187.576H27.9721V186.371H29.8956C33.9382 186.371 34.8184 184.938 34.8184 181.713V169.106H10.4325Z" fill="white"/>
<path d="M58.6823 179.856L57.0522 184.221C56.8063 184.786 56.6205 185.376 56.498 185.98C56.498 186.762 57.2152 187.022 58.7475 187.022H59.2039V187.576H52.6836V187.022C54.5093 187.022 54.8027 186.697 55.6829 184.253L60.9644 170.376L60.7036 169.757H63.1161L68.9844 185.263C69.0354 185.546 69.1417 185.816 69.2972 186.057C69.4527 186.298 69.6544 186.507 69.8906 186.67C70.1268 186.833 70.3929 186.949 70.6738 187.009C70.9546 187.07 71.2447 187.074 71.5273 187.022V187.576H63.8333V187.022H64.5505C66.148 187.022 66.7348 187.022 66.7348 186.078C66.7072 185.683 66.6077 185.297 66.4414 184.938L64.5505 179.856H58.6823ZM61.5186 172.102L59.1387 178.618H63.9963L61.5186 172.102Z" fill="white"/>
<path d="M85.9706 187.576L78.8309 172.656L78.0811 185.231C78.0811 186.664 79.0591 186.99 80.3306 187.022V187.576H74.4297V187.022C76.4836 187.022 76.7444 186.599 76.8748 184.025L77.5594 173.177C77.5594 171.32 77.5594 170.832 75.8642 170.702V170.213H80.1024L86.8183 184.286L93.5342 170.213H97.805V170.702C96.4357 170.702 95.9141 170.864 95.9793 171.809L96.8595 184.449C97.0225 187.022 97.2507 187.022 99.3046 187.022V187.576H91.9367V187.022C93.2734 187.022 94.5448 186.664 94.447 185.198L93.632 172.656L86.6553 187.576H85.9706Z" fill="white"/>
<path d="M113.715 188C112.468 188.107 111.212 187.96 110.023 187.57C108.835 187.18 107.737 186.554 106.796 185.73C105.855 184.905 105.091 183.899 104.549 182.772C104.006 181.646 103.698 180.421 103.641 179.172C103.637 177.863 103.904 176.567 104.425 175.366C104.946 174.165 105.709 173.084 106.666 172.192C107.624 171.299 108.756 170.613 109.991 170.177C111.227 169.742 112.538 169.565 113.845 169.659C115.055 169.58 116.27 169.741 117.418 170.132C118.566 170.524 119.625 171.139 120.534 171.941C121.443 172.744 122.184 173.718 122.715 174.808C123.245 175.898 123.555 177.082 123.625 178.292C123.617 179.581 123.353 180.856 122.85 182.042C122.346 183.229 121.613 184.305 120.692 185.207C119.771 186.109 118.68 186.821 117.482 187.3C116.285 187.779 115.004 188.017 113.715 188V188ZM113.128 170.474C112.15 170.527 111.194 170.776 110.315 171.206C109.436 171.635 108.652 172.237 108.01 172.976C107.368 173.714 106.882 174.574 106.579 175.504C106.277 176.434 106.164 177.416 106.249 178.39C106.165 179.51 106.309 180.636 106.672 181.699C107.036 182.762 107.611 183.74 108.364 184.574C109.117 185.409 110.031 186.082 111.052 186.553C112.072 187.024 113.178 187.284 114.301 187.316C115.28 187.265 116.237 187.013 117.115 186.578C117.992 186.143 118.771 185.532 119.404 184.784C120.036 184.036 120.508 183.167 120.792 182.23C121.075 181.293 121.163 180.307 121.05 179.335C121.158 178.223 121.035 177.102 120.687 176.041C120.34 174.98 119.777 174.002 119.032 173.169C118.288 172.337 117.379 171.667 116.363 171.203C115.346 170.74 114.245 170.491 113.128 170.474V170.474Z" fill="white"/>
<path d="M146.707 187.772L132.069 172.656V184.644C132.069 186.631 132.526 187.055 134.905 187.055V187.609H128.385V187.055C130.146 187.055 130.7 186.468 130.7 185.198V171.418C130.009 170.946 129.19 170.696 128.353 170.701V170.18H132.721L145.762 183.895V172.656C145.762 170.962 145.273 170.636 143.023 170.571V170.05H149.544V170.571C147.457 170.571 147.001 170.962 147.001 172.037V187.641L146.707 187.772Z" fill="white"/>
<path d="M193.294 187.577H178.167V186.371C182.014 186.208 182.829 185.199 182.829 181.029V154.577C182.829 151.319 181.655 150.276 178.167 150.081V148.908H193.294V150.081C189.349 150.081 187.98 150.961 187.98 155.13V181.485C187.98 185.133 188.991 186.371 193.294 186.371V187.577Z" fill="white"/>
<path d="M220.386 187.772L205.911 172.657V184.645C205.911 186.632 206.367 187.056 208.747 187.056V187.61H202.129V187.056C203.89 187.056 204.444 186.469 204.444 185.199V171.419C203.753 170.947 202.934 170.697 202.097 170.702V170.181H206.693L219.734 183.896V172.657C219.734 170.963 219.245 170.637 216.996 170.572V170.051H223.516V170.572C221.397 170.572 220.973 170.963 220.973 172.038V187.642L220.386 187.772Z" fill="white"/>
<path d="M235.481 188L229.417 172.885C228.733 171.125 228.407 170.702 226.679 170.702V170.181H234.373V170.702C231.797 170.702 231.113 171.353 231.732 172.656L236.753 185.166L241.252 173.634C241.518 173.081 241.684 172.485 241.741 171.875C241.741 171.06 241.056 170.702 239.132 170.702V170.181H245.653V170.702C244.218 170.702 243.436 171.386 242.784 173.113L237.013 188H235.481Z" fill="white"/>
<path d="M261.204 181.289H260.813C260.584 179.302 260.063 179.074 258.922 179.074H254.031V185.036C254.031 186.306 254.52 186.567 255.564 186.567H259.867C261.823 186.567 262.41 185.817 263.127 183.309H263.649L263.192 187.479H248.326V186.925H249.109C251.326 186.925 251.717 186.306 251.717 184.645V172.95C251.717 171.386 251.358 170.702 249.5 170.702H248.88V170.181H262.312L262.508 174.057H262.019C261.66 171.679 260.943 171.191 259.932 171.191H254.031V178.064H259.052C260.063 178.064 260.552 177.576 260.682 175.979H261.204V181.289Z" fill="white"/>
<path d="M269.028 183.309C269.236 184.43 269.835 185.441 270.718 186.162C271.602 186.884 272.712 187.269 273.853 187.25C274.322 187.3 274.796 187.253 275.246 187.115C275.696 186.976 276.114 186.747 276.473 186.443C276.833 186.139 277.127 185.764 277.338 185.343C277.549 184.922 277.672 184.463 277.7 183.993C277.7 179.953 268.735 178.748 268.735 173.861C268.783 173.265 268.951 172.685 269.229 172.155C269.506 171.625 269.887 171.156 270.349 170.777C270.812 170.397 271.345 170.114 271.919 169.944C272.493 169.774 273.095 169.722 273.69 169.789C276.07 169.789 276.526 170.506 277.504 170.506C277.733 170.506 277.83 170.506 278.026 170.213H278.45L278.939 173.764H278.45C278.115 172.831 277.507 172.021 276.704 171.44C275.901 170.859 274.942 170.533 273.951 170.506C272.125 170.506 270.691 171.548 270.691 173.112C270.691 177.086 279.656 178.161 279.656 183.309C279.6 184.004 279.403 184.681 279.078 185.298C278.752 185.915 278.304 186.459 277.761 186.898C277.219 187.336 276.592 187.66 275.92 187.85C275.249 188.039 274.545 188.09 273.853 188C272.541 187.862 271.243 187.611 269.973 187.25C269.861 187.255 269.752 187.287 269.656 187.344C269.559 187.401 269.478 187.481 269.419 187.576H268.963L268.376 183.309H269.028Z" fill="white"/>
<path d="M294.001 185.003C294.001 186.501 294.49 187.023 296.218 187.023H297.229V187.576H288.427V187.023H289.47C291.165 187.023 291.687 186.501 291.687 185.003V171.19H286.894C285.753 171.19 285.264 171.842 284.84 174.448H284.286L284.71 169.92H285.264C285.273 170.002 285.305 170.079 285.358 170.143C285.41 170.206 285.479 170.253 285.558 170.278H286.112H299.576C299.967 170.278 300.359 170.278 300.424 169.855H300.946L301.402 174.383H300.913C300.489 171.94 299.967 171.125 298.859 171.125H294.001V185.003Z" fill="white"/>
<path d="M316.593 187.576L309.486 172.656L308.736 185.231C308.736 186.664 309.714 186.99 310.986 187.022V187.576H305.085V187.022C307.139 187.022 307.367 186.599 307.53 184.025L308.182 173.177C308.182 171.32 308.182 170.832 306.519 170.702V170.213H310.725L317.474 184.286L324.189 170.213H328.297V170.702C326.928 170.702 326.406 170.864 326.439 171.809L327.352 184.449C327.352 187.022 327.743 187.022 329.764 187.022V187.576H322.755V187.022C324.059 187.022 325.363 186.664 325.233 185.198L324.255 172.656L317.278 187.576H316.593Z" fill="white"/>
<path d="M345.772 181.289H345.217C345.022 179.302 344.467 179.074 343.326 179.074H338.599V185.036C338.599 186.306 339.088 186.567 340.131 186.567H344.435C346.391 186.567 346.978 185.817 347.695 183.309H348.184L347.76 187.479H332.861V186.925H333.644C335.893 186.925 336.284 186.306 336.284 184.645V172.95C336.284 171.386 335.926 170.702 334.035 170.702H333.448V170.181H346.847L347.076 174.057H346.587C346.195 171.679 345.511 171.191 344.5 171.191H338.599V178.064H343.62C344.63 178.064 345.087 177.576 345.217 175.979H345.772V181.289Z" fill="white"/>
<path d="M370.81 187.772L356.335 172.657V184.645C356.335 186.632 356.758 187.056 359.138 187.056V187.61H352.618V187.056C354.346 187.056 354.9 186.469 354.9 185.199V171.419C354.209 170.947 353.39 170.697 352.553 170.702V170.181H356.954L369.995 183.896V172.657C369.995 170.963 369.473 170.637 367.223 170.572V170.051H373.744V170.572C371.657 170.572 371.201 170.963 371.201 172.038V187.642L370.81 187.772Z" fill="white"/>
<path d="M387.599 185.003C387.599 186.501 388.088 187.023 389.816 187.023H390.827V187.576H382.024V187.023H383.067C384.763 187.023 385.284 186.501 385.284 185.003V171.19H380.427C379.286 171.19 378.797 171.842 378.373 174.448H377.884L378.308 169.92H378.862C378.871 170.002 378.903 170.079 378.955 170.143C379.007 170.206 379.077 170.253 379.155 170.278H379.709H393.174C393.565 170.278 393.956 170.278 394.022 169.855H394.478L394.934 174.383H394.478C394.054 171.94 393.533 171.125 392.424 171.125H387.566L387.599 185.003Z" fill="white"/>
</g>
<defs>
<clipPath id="clip0_2647_917">
<rect width="395" height="188" fill="white"/>
</clipPath>
</defs>
</svg>
