<svg width="88" height="92" viewBox="0 0 88 92" fill="none" xmlns="http://www.w3.org/2000/svg">
<path d="M43.2432 10.0032C28.2744 10.0032 16 22.2776 16 37.2464C16 44.4314 18.6944 51.1674 23.7838 56.2568C26.1788 58.8015 27.526 62.0947 27.526 65.5375V73.3213C27.526 74.6685 28.7235 75.866 30.0707 75.866H30.5197C31.1185 79.3088 33.9626 82.0032 37.5551 82.0032H48.632C52.2245 82.0032 55.2183 79.3088 55.6674 75.866H56.1164C57.4636 75.866 58.6611 74.6685 58.6611 73.3213V65.8369C58.6611 62.2443 60.0083 58.9512 62.553 56.4065C67.6424 51.3171 70.4865 44.4314 70.4865 37.2464C70.4865 22.2776 58.212 10.0032 43.2432 10.0032ZM44.1413 12.2485C57.1642 12.6976 67.6424 23.1757 68.0914 36.1986H63.0021C63.4511 35.4502 63.6008 34.4023 63.6008 33.5042C63.6008 31.8576 62.8524 30.2111 61.6549 29.0136C60.4574 27.8161 58.6611 27.367 57.0145 27.5167C54.1705 27.8161 52.0748 30.0614 51.7755 32.9055C51.6258 34.103 51.9251 35.1508 52.3742 36.1986H44.1413V27.9657C46.3867 29.1633 49.5301 28.5645 51.3264 26.6186C52.5239 25.4211 52.9729 23.6248 52.8232 21.9782C52.5239 19.1342 50.2786 17.0385 47.4345 16.7391C46.237 16.5895 45.1892 16.8888 44.1413 17.3379V12.2485ZM42.0457 12.2485V19.4335C42.0457 19.8826 42.1954 20.182 42.6445 20.3316C42.9438 20.4813 43.3929 20.4813 43.6923 20.3316C43.842 20.3316 43.842 20.182 43.9917 20.0323C44.7401 18.9845 45.9376 18.5354 47.2848 18.6851C49.0811 18.8348 50.4282 20.3317 50.7276 21.9782C50.8773 23.026 50.5779 24.0739 49.8295 24.972C48.3326 26.6186 45.4885 26.6185 44.1413 24.8223C43.842 24.5229 43.3929 24.3732 42.9439 24.5229C42.4948 24.6726 42.1954 25.1217 42.1954 25.5707V36.0489H37.2557C37.7048 35.3005 37.8544 34.2527 37.8544 33.3545C37.8544 31.5583 37.106 29.9117 35.7588 28.7142C34.4116 27.5167 32.6154 27.0676 30.8191 27.367C28.4241 27.8161 26.3285 29.762 26.0291 32.3067C25.8794 33.6539 26.0291 34.8514 26.6278 35.8992H18.5447C18.844 23.1757 29.1725 12.8472 42.0457 12.2485ZM25.2806 54.7599C20.9397 50.2693 18.5447 44.5811 18.2453 38.2942H28.5738C29.1725 38.2942 29.6216 37.8452 29.6216 37.3961C29.6216 37.0967 29.4719 36.6477 29.1725 36.498C28.1247 35.5998 27.6757 34.2527 27.8254 32.9055C28.1247 31.4086 29.3222 30.0614 30.8191 29.762C32.0166 29.6123 33.0644 29.9117 33.9626 30.6601C34.8607 31.4086 35.3098 32.4564 35.3098 33.6539C35.3098 34.8514 34.8607 35.8992 33.9626 36.6477C33.6632 36.947 33.5135 37.3961 33.6632 37.8452C33.8129 38.2942 34.262 38.5936 34.711 38.5936H41.896V45.7786C41.896 46.078 42.0457 46.3774 42.1954 46.5271C42.3451 46.6768 42.6444 46.8265 43.0935 46.8265C43.3929 46.8265 43.6923 46.6768 43.842 46.3774C44.7401 45.3296 46.0873 44.8805 47.4345 45.0302C48.9314 45.3296 50.2785 46.5271 50.5779 48.024C50.7276 49.2215 50.4283 50.2693 49.6798 51.1674C48.1829 52.9637 45.3388 52.9637 43.842 51.1674C43.5426 50.868 43.0935 50.7184 42.6445 50.868C42.1954 51.0177 41.896 51.4668 41.896 51.9159V61.945H29.1725C28.5738 59.1009 27.2266 56.7059 25.2806 54.7599ZM48.632 79.6082H37.5551C35.1601 79.6082 33.2141 77.9616 32.765 75.7163H53.5717C52.9729 77.9616 51.027 79.6082 48.632 79.6082ZM56.5654 65.6872V73.1716C56.5654 73.3213 56.4158 73.4709 56.2661 73.4709H30.0707C29.921 73.4709 29.7713 73.3213 29.7713 73.1716V69.8784H51.9251C52.5239 69.8784 52.9729 69.4294 52.9729 68.8306C52.9729 68.2319 52.5239 67.7828 51.9251 67.7828H29.7713V65.5375C29.7713 64.9387 29.7713 64.4897 29.6216 63.8909H56.7151C56.5655 64.4897 56.5654 65.0884 56.5654 65.6872ZM61.0561 54.9096C59.1101 56.8556 57.763 59.2506 57.1642 61.7953H44.1413V54.0115C44.8898 54.4605 45.9376 54.6102 46.8357 54.6102C48.632 54.6102 50.2786 53.8618 51.4761 52.5146C52.6736 51.1674 53.1226 49.3712 52.8232 47.5749C52.3742 45.1799 50.4282 43.0842 47.8836 42.7849C46.5364 42.6352 45.3389 42.7849 44.291 43.3836V38.4439H54.7692C55.0686 38.4439 55.368 38.2942 55.6674 37.9949C55.9667 37.6955 55.9667 37.3961 55.817 37.0967C55.817 36.947 55.6673 36.6477 55.5177 36.498C54.4698 35.7495 54.0208 34.4023 54.1705 33.2048C54.3202 31.4086 55.817 30.0614 57.4636 29.762C58.5114 29.6123 59.5592 29.9117 60.4573 30.6601C61.2058 31.4086 61.6549 32.4564 61.6549 33.5042C61.6549 34.7017 61.2058 35.7495 60.3076 36.498C60.0083 36.7973 59.8586 37.2464 60.0083 37.6955C60.158 38.1445 60.607 38.4439 61.0561 38.4439H68.3908C67.9418 44.5811 65.397 50.419 61.0561 54.9096Z" fill="#195A96"/>
</svg>
