<svg width="91" height="91" viewBox="0 0 91 91" fill="none" xmlns="http://www.w3.org/2000/svg">
<path d="M27.4615 46C26.7781 46 26.1226 46.2709 25.6394 46.7532C25.1561 47.2354 24.8846 47.8894 24.8846 48.5714V61.4286C24.8846 62.1106 25.1561 62.7646 25.6394 63.2468C26.1226 63.7291 26.7781 64 27.4615 64C28.145 64 28.8004 63.7291 29.2837 63.2468C29.767 62.7646 30.0385 62.1106 30.0385 61.4286V58.8571H31.3269C33.0355 58.8571 34.6742 58.1798 35.8823 56.9743C37.0905 55.7687 37.7692 54.1335 37.7692 52.4286C37.7692 50.7236 37.0905 49.0885 35.8823 47.8829C34.6742 46.6773 33.0355 46 31.3269 46H27.4615ZM31.3269 53.7143H30.0385V51.1429H31.3269C31.6686 51.1429 31.9964 51.2783 32.238 51.5194C32.4796 51.7606 32.6154 52.0876 32.6154 52.4286C32.6154 52.7696 32.4796 53.0966 32.238 53.3377C31.9964 53.5788 31.6686 53.7143 31.3269 53.7143ZM40.3462 48.5714C40.3462 47.8894 40.6177 47.2354 41.1009 46.7532C41.5842 46.2709 42.2396 46 42.9231 46H44.2115C46.6036 46 48.8977 46.9482 50.5891 48.636C52.2805 50.3239 53.2308 52.6131 53.2308 55C53.2308 57.3869 52.2805 59.6761 50.5891 61.364C48.8977 63.0518 46.6036 64 44.2115 64H42.9231C42.2396 64 41.5842 63.7291 41.1009 63.2468C40.6177 62.7646 40.3462 62.1106 40.3462 61.4286V48.5714ZM45.5 58.6386C46.255 58.3735 46.909 57.8812 47.3716 57.2294C47.8342 56.5777 48.0827 55.7987 48.0827 55C48.0827 54.2013 47.8342 53.4223 47.3716 52.7706C46.909 52.1188 46.255 51.6265 45.5 51.3614V58.6386ZM55.8077 61.4286V48.5714C55.8077 47.8894 56.0792 47.2354 56.5625 46.7532C57.0457 46.2709 57.7012 46 58.3846 46H66.1154C66.7988 46 67.4543 46.2709 67.9375 46.7532C68.4208 47.2354 68.6923 47.8894 68.6923 48.5714C68.6923 49.2534 68.4208 49.9075 67.9375 50.3897C67.4543 50.8719 66.7988 51.1429 66.1154 51.1429H60.9615V53.7143H66.1154C66.7988 53.7143 67.4543 53.9852 67.9375 54.4674C68.4208 54.9497 68.6923 55.6037 68.6923 56.2857C68.6923 56.9677 68.4208 57.6218 67.9375 58.104C67.4543 58.5862 66.7988 58.8571 66.1154 58.8571H60.9615V61.4286C60.9615 62.1106 60.69 62.7646 60.2068 63.2468C59.7235 63.7291 59.0681 64 58.3846 64C57.7012 64 57.0457 63.7291 56.5625 63.2468C56.0792 62.7646 55.8077 62.1106 55.8077 61.4286ZM48.0769 28V10H24.8846C22.8343 10 20.8679 10.8128 19.4181 12.2595C17.9683 13.7062 17.1538 15.6683 17.1538 17.7143V38.2857C15.787 38.2857 14.4761 38.8276 13.5095 39.792C12.543 40.7565 12 42.0646 12 43.4286V66.5714C12 67.9354 12.543 69.2435 13.5095 70.208C14.4761 71.1724 15.787 71.7143 17.1538 71.7143V74.2857C17.1538 76.3317 17.9683 78.2938 19.4181 79.7405C20.8679 81.1872 22.8343 82 24.8846 82H66.1154C68.1657 82 70.1321 81.1872 71.5819 79.7405C73.0317 78.2938 73.8462 76.3317 73.8462 74.2857V71.7143C75.213 71.7143 76.5239 71.1724 77.4905 70.208C78.457 69.2435 79 67.9354 79 66.5714V43.4286C79 42.0646 78.457 40.7565 77.4905 39.792C76.5239 38.8276 75.213 38.2857 73.8462 38.2857V35.7143H55.8077C53.7574 35.7143 51.791 34.9015 50.3412 33.4548C48.8914 32.0081 48.0769 30.046 48.0769 28ZM73.8462 43.4286V66.5714H17.1538V43.4286H73.8462ZM53.2308 28V10.3009C54.4899 10.6617 55.6364 11.336 56.5627 12.2603L71.581 27.2466C72.5073 28.1709 73.183 29.315 73.5447 30.5714H55.8077C55.1243 30.5714 54.4688 30.3005 53.9855 29.8183C53.5023 29.336 53.2308 28.682 53.2308 28Z" fill="#0A6E9A"/>
<rect x="1.5" y="1.5" width="88" height="88" rx="3.5" stroke="#0A6E9A" stroke-width="3"/>
</svg>
