<svg width="137" height="128" viewBox="0 0 137 128" fill="none" xmlns="http://www.w3.org/2000/svg">
<circle cx="102" cy="35" r="35" fill="#F0A500" fill-opacity="0.8"/>
<path d="M22.9537 33.0831C28.4527 33.0831 32.9953 28.5405 32.9953 23.0416C32.9953 17.5426 28.4527 13 22.9537 13C17.4548 13 12.9121 17.5426 12.9121 23.0416C12.9121 28.5405 17.4548 33.0831 22.9537 33.0831ZM22.9537 16.5863C26.54 16.5863 29.409 19.4553 29.409 23.0416C29.409 26.6279 26.54 29.4969 22.9537 29.4969C19.3674 29.4969 16.4984 26.6279 16.4984 23.0416C16.4984 19.6944 19.3674 16.5863 22.9537 16.5863Z" fill="#195A96"/>
<path d="M62.8794 23.9984C62.8794 22.3248 62.1622 20.6512 60.9667 19.4558C58.5759 17.0649 54.2724 17.0649 51.8815 19.4558L36.5801 34.7572C35.1455 36.1918 32.9938 37.1481 30.842 37.1481H10.9979C4.78172 37.1481 0 42.1689 0 48.146V79.4662C0 83.0525 2.86902 85.9215 6.4553 85.9215C7.41164 85.9215 8.60706 85.6824 9.32431 85.2043V120.35C9.32431 124.653 12.6715 128.001 16.9751 128.001C19.3659 128.001 21.5177 126.805 22.9522 125.131C24.3867 126.805 26.5385 128.001 28.9293 128.001C33.2329 128.001 36.5801 124.653 36.5801 120.35V55.5577C36.5801 53.8841 37.2973 52.2105 38.4927 51.015L60.9667 28.541C62.1622 27.1065 62.8794 25.672 62.8794 23.9984ZM32.9938 120.35C32.9938 122.741 31.0811 124.414 28.6902 124.414C26.2994 124.414 24.3867 122.502 24.3867 120.35V86.8778C24.3867 85.9215 23.6694 85.2043 22.7131 85.2043C21.7568 85.2043 21.0395 85.9215 21.0395 86.8778V120.35C21.0395 122.741 19.1268 124.414 16.736 124.414C14.3451 124.414 12.4324 122.502 12.4324 120.35V80.6616H32.7547V120.35H32.9938ZM58.3368 25.9111L35.8628 48.3851C33.9501 50.2978 32.9938 52.6887 32.9938 55.3186V77.0754H12.6715V49.5806C12.6715 48.6242 11.9543 47.9069 10.9979 47.9069C10.0416 47.9069 9.32431 48.6242 9.32431 49.5806V79.2271C9.32431 80.9007 7.88981 82.0961 6.4553 82.0961C5.02078 82.0961 3.58628 80.6616 3.58628 79.2271V48.146C3.58628 43.8425 6.93347 40.4953 11.237 40.4953H21.5177C21.7568 41.2126 22.474 41.6907 23.1913 41.6907C23.9085 41.6907 24.6258 41.2126 24.8649 40.4953H31.0811C34.1892 40.4953 37.0582 39.2999 39.21 37.1481L54.5115 21.8467C55.7069 20.6512 57.6196 20.6512 58.5759 21.8467C59.0541 22.3248 59.5322 23.0421 59.5322 23.9984C59.2931 24.7157 59.0541 25.4329 58.3368 25.9111Z" fill="#195A96"/>
<path d="M22.9529 56.514C21.9966 56.514 21.2793 57.2313 21.2793 58.1876V60.8176C21.2793 61.7739 21.9966 62.4912 22.9529 62.4912C23.9093 62.4912 24.6265 61.7739 24.6265 60.8176V58.1876C24.6265 57.4704 23.9093 56.514 22.9529 56.514Z" fill="#195A96"/>
<path d="M22.9529 45.9933C21.9966 45.9933 21.2793 46.7105 21.2793 47.6669V50.2968C21.2793 51.2531 21.9966 51.9704 22.9529 51.9704C23.9093 51.9704 24.6265 51.2531 24.6265 50.2968V47.6669C24.6265 46.9496 23.9093 45.9933 22.9529 45.9933Z" fill="#195A96"/>
<path d="M22.9529 67.0334C21.9966 67.0334 21.2793 67.7507 21.2793 68.7071V69.9025C21.2793 70.8588 21.9966 71.5761 22.9529 71.5761C23.9093 71.5761 24.6265 70.8588 24.6265 69.9025V68.7071C24.6265 67.9898 23.9093 67.0334 22.9529 67.0334Z" fill="#195A96"/>
<path d="M114.045 84.9643L92.2885 63.2076C91.5713 62.4903 90.6149 62.4903 89.8977 63.2076L85.5941 67.5111V56.9914H94.6794C95.3966 56.9914 96.1139 56.5132 96.353 56.035C96.592 55.3178 96.5921 54.6005 95.8748 54.1224L74.118 32.3656C73.4008 31.6483 72.2053 31.6483 71.7272 32.3656L49.9704 54.1224C49.4922 54.6005 49.2531 55.3178 49.4922 56.035C49.7313 56.7523 50.4486 56.9914 51.1658 56.9914H60.2511V126.087C60.2511 127.043 60.9683 127.761 61.9247 127.761C62.881 127.761 63.5983 127.043 63.5983 126.087V55.3178C63.5983 54.3614 62.881 53.6442 61.9247 53.6442H55.2303L72.9226 35.9519L90.6149 53.6442H83.9205C82.9642 53.6442 82.2469 54.3614 82.2469 55.3178V70.8583L68.1409 84.9643C67.6627 85.4425 67.4236 86.1598 67.6627 86.877C67.9018 87.5943 68.6191 87.8334 69.3363 87.8334H78.4216V126.087C78.4216 127.043 79.1388 127.761 80.0952 127.761C81.0515 127.761 81.7687 127.043 81.7687 126.087V86.1598C81.7687 85.2034 81.0515 84.4862 80.0952 84.4862H73.4008L91.0931 66.7939L108.785 84.4862H102.091C101.135 84.4862 100.417 85.2034 100.417 86.1598V126.087C100.417 127.043 101.135 127.761 102.091 127.761C103.047 127.761 103.765 127.043 103.765 126.087V87.8334H112.85C113.567 87.8334 114.284 87.3552 114.523 86.877C114.763 86.3989 114.523 85.4425 114.045 84.9643Z" fill="#195A96"/>
</svg>
