<svg width="133" height="127" viewBox="0 0 133 127" fill="none" xmlns="http://www.w3.org/2000/svg">
<circle cx="98" cy="35" r="35" fill="#F0A500" fill-opacity="0.8"/>
<path d="M21.6565 47.4588C20.9377 46.7401 19.9794 46.7401 19.2607 47.4588L0.57312 66.1463C0.0939536 66.6254 -0.145586 67.3442 0.0939974 68.0629C0.333581 68.7817 1.05229 69.0213 1.77104 69.0213H11.1148V125.323C11.1148 126.282 11.8335 127 12.7919 127C13.7502 127 14.469 126.282 14.469 125.323V67.5839C14.469 66.6255 13.7502 65.9067 12.7919 65.9067H5.84398L20.219 51.5317L34.594 65.9067H27.6461C26.6877 65.9067 25.969 66.6255 25.969 67.5839V125.323C25.969 126.282 26.6877 127 27.6461 127C28.6044 127 29.3231 126.282 29.3231 125.323V69.2608H38.6669C39.3857 69.2608 40.1044 68.7817 40.344 68.3026C40.5835 67.5838 40.5836 66.8651 39.8648 66.3859L21.6565 47.4588Z" fill="#195A96"/>
<path d="M114.615 85.0732L95.928 66.3857C95.2092 65.667 94.2509 65.667 93.5321 66.3857L74.8446 85.0732C74.3654 85.5524 74.1259 86.2711 74.3655 86.9898C74.6051 87.7086 75.3238 87.9482 76.0425 87.9482H85.3863V125.323C85.3863 126.281 86.105 127 87.0634 127C88.0217 127 88.7405 126.281 88.7405 125.323V86.2711C88.7405 85.3128 88.0217 84.594 87.0634 84.594H80.1155L94.4905 70.219L108.865 84.594H101.918C100.959 84.594 100.24 85.3128 100.24 86.2711V125.323C100.24 126.281 100.959 127 101.918 127C102.876 127 103.595 126.281 103.595 125.323V87.9482H112.938C113.657 87.9482 114.376 87.469 114.615 86.9898C115.095 86.2711 115.095 85.5524 114.615 85.0732Z" fill="#195A96"/>
<path d="M98.8033 28.292C100.241 26.8545 100.96 24.9378 100.72 23.0211C100.72 21.1044 99.7617 19.1878 98.0846 17.9899C95.4492 15.8337 91.3763 16.0732 88.7409 18.7086L72.2096 35.2399C70.5326 36.9169 68.3763 37.8753 65.9805 37.8753H48.97C46.5742 37.8753 44.4179 36.9169 42.7409 35.2399L26.2096 18.7086C23.5742 16.0732 19.5013 15.8337 16.8659 17.9899C15.4284 19.1878 14.4701 21.1044 14.2305 23.0211C14.2305 24.9378 14.9492 26.8545 16.1471 28.292L40.8242 52.969C42.0221 54.1669 42.7409 56.0836 42.7409 58.2399V118.615C42.7409 123.167 46.3346 127 50.8867 127C55.4388 127 59.0325 123.406 59.2721 118.854V111.667C60.7096 112.625 62.3867 113.104 64.0637 113.104C68.6158 113.104 72.2096 109.511 72.2096 104.959V58.4794C72.2096 56.3231 72.9284 54.4066 74.3659 53.2087L98.8033 28.292ZM64.0637 109.511C61.4283 109.511 59.2721 107.354 59.2721 104.719V86.0314C59.2721 85.0731 58.5534 84.3545 57.595 84.3545C56.6367 84.3545 55.9179 85.0731 55.9179 86.0314V118.615C55.9179 121.25 53.7617 123.407 51.1263 123.407C48.4909 123.407 46.3346 121.25 46.3346 118.615V78.1252H68.8554V104.719C68.8554 107.354 66.6992 109.511 64.0637 109.511ZM71.7304 50.5732C69.8138 52.4898 68.6159 55.3649 68.6159 58.2399V74.5315H46.095V58.2399C46.095 55.3649 45.1367 52.4898 42.9805 50.5732L18.5429 25.8961C17.8242 25.1774 17.5846 24.219 17.5846 23.2607C17.5846 22.3024 18.0638 21.344 18.7825 20.8649C19.2617 20.3857 19.9805 20.1461 20.6992 20.1461C21.6576 20.1461 22.6159 20.6253 23.3346 21.3441L39.8659 37.8753C42.2617 40.2711 45.3763 41.469 48.4908 41.469H65.7409C69.095 41.469 72.2096 40.2711 74.3659 37.8753L90.8971 21.3441C92.3346 19.9066 94.2513 19.9065 95.6888 20.8649C96.4075 21.5836 96.8867 22.3024 96.8867 23.2607C96.8867 24.219 96.6471 25.1774 95.9284 25.8961L71.7304 50.5732Z" fill="#195A96"/>
<path d="M57.5944 33.0833C63.3444 33.0833 68.136 28.2916 68.136 22.5416C68.136 16.7916 63.3444 12 57.5944 12C51.8444 12 47.0527 16.7916 47.0527 22.5416C47.0527 28.2916 51.6048 33.0833 57.5944 33.0833ZM57.5944 15.5937C61.4277 15.5937 64.7819 18.7083 64.7819 22.7812C64.7819 26.6146 61.6673 29.9687 57.5944 29.9687C53.761 29.9687 50.4069 26.8542 50.4069 22.7812C50.4069 18.7083 53.5215 15.5937 57.5944 15.5937Z" fill="#195A96"/>
<path d="M57.5931 65.4266C56.6348 65.4266 55.916 66.1454 55.916 67.1037C55.916 68.0621 56.6348 68.7809 57.5931 68.7809C58.5515 68.7809 59.2702 68.0621 59.2702 67.1037C59.2702 66.385 58.5515 65.4266 57.5931 65.4266Z" fill="#195A96"/>
<path d="M57.5931 47.2192C56.6348 47.2192 55.916 47.9378 55.916 48.8961C55.916 49.8545 56.6348 50.5733 57.5931 50.5733C58.5515 50.5733 59.2702 49.8545 59.2702 48.8961C59.2702 47.9378 58.5515 47.2192 57.5931 47.2192Z" fill="#195A96"/>
<path d="M57.5931 56.3229C56.6348 56.3229 55.916 57.0417 55.916 58C55.916 58.9583 56.6348 59.677 57.5931 59.677C58.5515 59.677 59.2702 58.9583 59.2702 58C59.2702 57.0417 58.5515 56.3229 57.5931 56.3229Z" fill="#195A96"/>
</svg>
