<svg width="88" height="92" viewBox="0 0 88 92" fill="none" xmlns="http://www.w3.org/2000/svg">
<path d="M45.6485 26.4902C47.5794 26.4902 48.6192 27.3814 48.6192 29.0153C48.6192 30.5007 47.2823 31.5404 45.6485 31.5404C44.4602 31.5404 43.2719 30.7978 42.8263 29.9065C42.5293 29.3124 41.9351 29.1639 41.341 29.3124C40.7468 29.6095 40.5983 30.2036 40.7468 30.7978C41.3409 32.2831 42.8263 33.3229 44.4602 33.7685V34.8082C44.4602 35.4023 44.9058 35.848 45.5 35.848C46.0941 35.848 46.5397 35.4023 46.5397 34.8082V33.7685C48.9163 33.3229 50.5501 31.3919 50.5501 29.1639C50.5501 26.9358 49.2133 24.4107 45.3514 24.4107C43.4204 24.4107 42.3807 23.5195 42.3807 21.8856C42.3807 20.4003 43.7175 19.3605 45.3514 19.3605C46.5396 19.3605 47.728 20.1032 48.1736 20.9944C48.4706 21.5885 49.0648 21.7371 49.6589 21.5885C50.2531 21.2915 50.4016 20.6973 50.2531 20.1032C49.659 18.6178 48.1736 17.5781 46.5397 17.1325V16.0927C46.5397 15.4986 46.0941 15.053 45.5 15.053C44.9058 15.053 44.4602 15.4986 44.4602 16.0927V17.1325C42.0836 17.5781 40.4497 19.509 40.4497 21.7371C40.5982 23.9651 41.9351 26.4902 45.6485 26.4902Z" fill="#195A96"/>
<path d="M45.6488 40.8983C54.1154 40.8983 61.0966 33.9172 61.0966 25.4506C61.0966 16.9841 54.1154 10.0029 45.6488 10.0029C37.1823 10.0029 30.2012 16.9841 30.2012 25.4506C30.2012 33.9172 37.1823 40.8983 45.6488 40.8983ZM45.6488 12.0824C52.9271 12.0824 59.017 18.0238 59.017 25.4506C59.017 32.7289 53.0756 38.8188 45.6488 38.8188C38.222 38.8188 32.2806 32.8774 32.2806 25.4506C32.2806 18.0238 38.3706 12.0824 45.6488 12.0824Z" fill="#195A96"/>
<path d="M37.0334 26.4904C37.6077 26.4904 38.0732 26.0249 38.0732 25.4507C38.0732 24.8764 37.6077 24.4109 37.0334 24.4109C36.4592 24.4109 35.9937 24.8764 35.9937 25.4507C35.9937 26.0249 36.4592 26.4904 37.0334 26.4904Z" fill="#195A96"/>
<path d="M54.2638 26.4904C54.838 26.4904 55.3036 26.0249 55.3036 25.4507C55.3036 24.8764 54.838 24.4109 54.2638 24.4109C53.6896 24.4109 53.2241 24.8764 53.2241 25.4507C53.2241 26.0249 53.6896 26.4904 54.2638 26.4904Z" fill="#195A96"/>
<path d="M55.7489 44.4631H35.5481C34.9539 44.4631 34.5083 44.9088 34.5083 45.5029C34.5083 46.097 34.9539 46.5427 35.5481 46.5427H37.3305V79.9632C37.3305 80.5573 37.7761 81.0029 38.3703 81.0029H52.7782C53.3723 81.0029 53.8179 80.5573 53.8179 79.9632V46.5427H55.6004C56.1945 46.5427 56.6401 46.097 56.6401 45.5029C56.6401 44.9088 56.343 44.4631 55.7489 44.4631ZM51.7385 79.072H39.5585V46.6912H51.7385V79.072Z" fill="#195A96"/>
<path d="M31.2406 61.6934H11.0398C10.4456 61.6934 10 62.139 10 62.7331C10 63.3273 10.4456 63.7728 11.0398 63.7728H12.8222V79.9633C12.8222 80.5574 13.2678 81.003 13.862 81.003H28.2699C28.864 81.003 29.3096 80.5574 29.3096 79.9633V63.7728H31.0921C31.6862 63.7728 32.1318 63.3273 32.1318 62.7331C32.2804 62.2875 31.8347 61.6934 31.2406 61.6934ZM27.2302 79.072H15.0502V63.9214H27.2302V79.072Z" fill="#195A96"/>
<path d="M80.2572 53.0784H60.0564C59.4622 53.0784 59.0166 53.5239 59.0166 54.1181C59.0166 54.7122 59.4622 55.1579 60.0564 55.1579H61.8388V79.9633C61.8388 80.5575 62.2844 81.003 62.8786 81.003H77.2865C77.8806 81.003 78.3262 80.5575 78.3262 79.9633V55.1579H80.1087C80.7028 55.1579 81.1484 54.7122 81.1484 54.1181C81.297 53.6725 80.8513 53.0784 80.2572 53.0784ZM76.2468 79.0721H64.0668V55.3064H76.2468V79.0721Z" fill="#195A96"/>
<path d="M21.1402 58.1284C24.8536 58.1284 27.9729 55.0092 27.9729 51.2958C27.9729 47.5824 24.8536 44.4631 21.1402 44.4631C17.4268 44.4631 14.3076 47.5824 14.3076 51.2958C14.3076 55.0092 17.4268 58.1284 21.1402 58.1284ZM21.1402 46.6912C23.6653 46.6912 25.8934 48.7707 25.8934 51.4443C25.8934 54.118 23.8139 56.1975 21.1402 56.1975C18.6151 56.1975 16.3871 54.118 16.3871 51.4443C16.3871 48.7707 18.6151 46.6912 21.1402 46.6912Z" fill="#195A96"/>
<path d="M70.1568 49.5132C74.7614 49.5132 78.4749 45.7998 78.4749 41.1952C78.4749 36.5906 74.7614 32.8772 70.1568 32.8772C65.5522 32.8772 61.8389 36.5906 61.8389 41.1952C61.8389 45.7998 65.5522 49.5132 70.1568 49.5132ZM70.1568 35.1052C73.5731 35.1052 76.2468 37.7789 76.2468 41.1952C76.2468 44.6115 73.5731 47.2852 70.1568 47.2852C66.7405 47.2852 64.0669 44.6115 64.0669 41.1952C64.0669 37.7789 66.7405 35.1052 70.1568 35.1052Z" fill="#195A96"/>
</svg>
