<svg width="72" height="71" viewBox="0 0 72 71" fill="none" xmlns="http://www.w3.org/2000/svg">
<path d="M31.3584 20.116C29.5834 20.116 28.6959 19.3764 28.6959 17.7493C28.6959 16.4181 29.8792 15.3827 31.3584 15.3827C32.3938 15.3827 33.4292 15.9743 33.873 16.8618C34.1688 17.4535 34.7605 17.6014 35.3521 17.4535C35.9438 17.1577 36.0917 16.566 35.9438 15.9743C35.3521 14.6431 34.0209 13.6076 32.5417 13.3118V12.4243C32.5417 11.8327 32.098 11.3889 31.5063 11.3889C30.9146 11.3889 30.4709 11.8327 30.4709 12.4243V13.3118C28.4 13.7556 26.7729 15.5306 26.7729 17.6014C26.7729 19.8202 28.1042 22.0389 31.5063 22.0389C33.2813 22.0389 34.1688 22.7785 34.1688 24.4056C34.1688 25.7368 32.9855 26.7722 31.5063 26.7722C30.4709 26.7722 29.4354 26.1806 28.9917 25.2931C28.6959 24.7014 28.1042 24.5535 27.5125 24.7014C26.9209 24.9972 26.773 25.5889 26.9209 26.1806C27.5125 27.5118 28.8438 28.5472 30.3229 28.8431V29.7306C30.3229 30.3222 30.7667 30.766 31.3584 30.766C31.95 30.766 32.3938 30.3222 32.3938 29.7306V28.8431C34.4646 28.3993 36.0917 26.6243 36.0917 24.5535C36.0917 22.3347 34.9084 20.116 31.3584 20.116Z" fill="#195A96"/>
<path d="M63.6039 18.1931C63.456 18.341 63.3081 18.6368 63.3081 18.9326C63.3081 19.2285 63.456 19.5243 63.6039 19.6722C63.7518 19.8201 64.0477 19.9681 64.3435 19.9681C64.6393 19.9681 64.9352 19.8201 65.0831 19.6722C65.231 19.5243 65.3789 19.2285 65.3789 18.9326C65.3789 18.6368 65.231 18.341 65.0831 18.1931C64.7872 17.8972 64.0477 17.8972 63.6039 18.1931Z" fill="#195A96"/>
<path d="M64.3435 23.2224C63.7518 23.2224 63.3081 23.6662 63.3081 24.2578C63.3081 24.8495 63.7518 25.2932 64.3435 25.2932C64.9352 25.2932 65.3789 24.8495 65.3789 24.2578C65.5268 23.6662 64.9352 23.2224 64.3435 23.2224Z" fill="#195A96"/>
<path d="M64.3435 28.3994C63.7518 28.3994 63.3081 28.8432 63.3081 29.4348C63.3081 30.0265 63.7518 30.4702 64.3435 30.4702C64.9352 30.4702 65.3789 30.0265 65.3789 29.4348C65.5268 28.9911 64.9352 28.3994 64.3435 28.3994Z" fill="#195A96"/>
<path d="M63.6039 34.0203C63.456 34.1682 63.3081 34.4641 63.3081 34.7599C63.3081 35.0557 63.456 35.3516 63.6039 35.4995C63.7518 35.6474 64.0477 35.7953 64.3435 35.7953C64.6393 35.7953 64.9352 35.6474 65.0831 35.4995C65.231 35.3516 65.3789 35.0557 65.3789 34.7599C65.3789 34.4641 65.231 34.1682 65.0831 34.0203C64.7872 33.5766 64.0477 33.5766 63.6039 34.0203Z" fill="#195A96"/>
<path d="M64.6396 -0.000488281H6.50837C2.95837 -0.000488281 0 2.95786 0 6.50786V47.3328C0 50.8828 2.95837 53.8412 6.50837 53.8412H26.625C26.625 53.9891 26.625 53.9891 26.625 54.137C26.4771 56.6516 27.0688 57.687 27.2167 57.8349C27.5125 58.2787 27.9563 58.4266 28.4 58.2787C30.4709 57.8349 33.8729 57.3912 34.9083 57.687C37.275 58.4266 39.6417 60.3495 41.8604 62.1245C43.6354 63.4558 44.9667 64.6391 46.2979 65.0828V69.9641C46.2979 70.5558 46.7417 70.9995 47.3333 70.9995H64.3438C64.9354 70.9995 65.3792 70.5558 65.3792 69.9641V53.6933C68.4854 53.2495 71 50.587 71 47.3328V6.50786C71.1479 2.95786 68.1896 -0.000488281 64.6396 -0.000488281ZM10.2063 51.6224H6.65625C4.28958 51.6224 2.36668 49.6995 2.36668 47.3328V6.50786C2.36668 4.14119 4.28958 2.21826 6.65625 2.21826H10.2063V51.6224ZM63.3084 68.7808H48.3688V65.2308H63.3084V68.7808ZM63.3084 63.1599H47.3333C46.4458 63.1599 44.6709 61.6808 43.1917 60.4974C40.9729 58.7224 38.4583 56.6516 35.6479 55.7641C35.2042 55.6162 34.4646 55.6162 33.725 55.6162C32.0979 55.6162 30.175 55.912 28.9917 56.0599C28.9917 55.6162 28.8438 55.0245 28.8438 54.2849C28.8438 52.5099 31.3584 51.1787 34.6125 50.8829C37.5709 50.587 39.9375 51.1787 40.825 51.4745C41.1208 51.6224 41.5646 51.4745 41.7125 51.3266C41.8604 51.1787 42.1563 50.7349 42.1563 50.4391V25.2933C42.1563 24.4058 43.1917 23.6662 44.2271 23.6662C45.4105 23.6662 46.2979 24.4058 46.2979 25.2933V37.5704C46.2979 38.0141 46.5938 38.4579 47.0375 38.6058C47.4813 38.7537 47.925 38.6058 48.2208 38.162C49.1083 36.8308 51.1792 36.8308 52.2146 38.162C52.3625 38.4578 52.6584 38.6058 52.9542 38.6058C53.25 38.6058 53.5459 38.4579 53.8417 38.3099C54.2855 37.8662 54.8771 37.5704 55.4688 37.5704C56.6521 37.5704 57.6875 38.4579 57.8354 39.4933C57.8354 39.7891 58.1313 40.0849 58.4271 40.2329C58.7229 40.3808 59.1667 40.3808 59.4625 40.2329C59.7584 40.0849 60.2021 39.937 60.6458 39.937C61.9771 39.937 63.0125 40.8245 63.1604 42.3037V63.1599H63.3084ZM40.0854 33.7245H20.5605C19.525 33.7245 18.7854 32.9849 18.7854 31.9495V10.5016C18.7854 9.46619 19.525 8.72661 20.5605 8.72661H42.0084C43.0438 8.72661 43.7833 9.46619 43.7833 10.5016V21.5954C41.7125 21.8912 40.0854 23.3704 40.0854 25.2933V33.7245ZM68.9292 47.3328C68.9292 49.4037 67.45 51.1787 65.3792 51.6224V42.4516C65.3792 42.3037 65.3792 42.1558 65.3792 42.1558C65.0834 39.7891 63.1604 38.0141 60.7938 38.0141C60.4979 38.0141 60.0542 38.0141 59.7584 38.162C59.0188 36.6828 57.3917 35.6474 55.6167 35.6474C54.7292 35.6474 53.9896 35.7953 53.25 36.2391C51.9188 35.2037 49.9959 34.9078 48.5167 35.4995V25.2933C48.5167 23.8141 47.4813 22.4828 45.8542 21.8912V10.5016C45.8542 8.28285 44.0792 6.50786 41.8604 6.50786H20.4125C18.1938 6.50786 16.4188 8.28285 16.4188 10.5016V31.9495C16.4188 34.1683 18.1938 35.9433 20.4125 35.9433H39.9375V48.9599C38.6063 48.6641 36.5354 48.3683 34.3167 48.6641C31.2104 48.9599 28.6958 50.1433 27.3646 51.7703H12.1292V2.21826H64.6396C67.0063 2.21826 68.9292 4.14119 68.9292 6.50786V47.3328Z" fill="#195A96"/>
<path d="M5.17725 21.8914V31.9497C5.17725 32.5414 5.62101 32.9851 6.21268 32.9851C6.80435 32.9851 7.24812 32.5414 7.24812 31.9497V21.8914C7.24812 21.2997 6.80435 20.856 6.21268 20.856C5.62101 20.856 5.17725 21.2997 5.17725 21.8914Z" fill="#195A96"/>
</svg>
